<svg width="120" height="100" fill="none" xmlns="http://www.w3.org/2000/svg">
  <rect width="120" height="100" rx="4" fill="#E4E4E7"/>
  <path d="M0 4a4 4 0 0 1 4-4h112a4 4 0 0 1 4 4v8H0V4Z" fill="#71717A"/>
  <path d="m12.89 4.441-2.668 2.197v2.37a.232.232 0 0 0 .232.232l1.62-.004a.231.231 0 0 0 .231-.232V7.62a.232.232 0 0 1 .232-.232h.925a.231.231 0 0 1 .232.232v1.383a.231.231 0 0 0 .231.233l1.621.004a.231.231 0 0 0 .232-.231V6.636L13.11 4.441a.176.176 0 0 0-.222 0Zm4.213 1.493-1.21-.997V2.933a.173.173 0 0 0-.173-.173h-.81a.174.174 0 0 0-.174.173v1.05L13.44 2.919a.694.694 0 0 0-.883 0L8.896 5.934a.173.173 0 0 0-.023.245l.37.448a.174.174 0 0 0 .244.024l3.402-2.803a.176.176 0 0 1 .222 0l3.403 2.803a.174.174 0 0 0 .244-.023l.37-.449a.173.173 0 0 0-.025-.245Z" fill="#fff"/>
  <rect x="26" y="5" width="12" height="3" rx="1.5" fill="#fff"/>
  <rect x="42" y="5" width="12" height="3" rx="1.5" fill="#fff"/>
  <rect x="58" y="5" width="12" height="3" rx="1.5" fill="#fff"/>
  <rect x="74" y="5" width="12" height="3" rx="1.5" fill="#fff"/>
  <mask id="a" fill="#fff">
    <path d="M0 12h120v16a4 4 0 0 1-4 4H4a4 4 0 0 1-4-4V12Z"/>
  </mask>
  <path d="M0 12h120v16a4 4 0 0 1-4 4H4a4 4 0 0 1-4-4V12Z" fill="#FAFAFA"/>
  <rect x="8" y="20" width="18" height="4" rx="1" fill="#71717A"/>
  <rect x="52" y="16" width="60" height="12" rx="4" fill="#71717A"/>
  <path d="M0 12h120H0Zm121 16a5 5 0 0 1-5 5H4a5 5 0 0 1-5-5h2a3 3 0 0 0 3 3h112a3 3 0 0 0 3-3h2ZM4 33a5 5 0 0 1-5-5V12h2v16a3 3 0 0 0 3 3v2Zm117-21v16a5 5 0 0 1-5 5v-2a3 3 0 0 0 3-3V12h2Z" fill="#71717A" mask="url(#a)"/>
</svg>
