<svg width="235" height="52" viewBox="0 0 235 52" fill="none" xmlns="http://www.w3.org/2000/svg">
<rect x="0.5" y="0.5" width="234" height="51" rx="2.5" fill="#F9FAFB" stroke="#D1D5DB"/>
<rect x="105.265" y="25" width="118.096" height="18" rx="1" fill="#E5E7EB"/>
<rect x="11.6393" y="27" width="37.2374" height="14" rx="1" fill="#D4D4D8"/>
<path d="M24.1904 35.9453V37H20.6162V35.9453H24.1904ZM21.0215 29.8906V37H19.6787V29.8906H21.0215ZM24.7617 34.4121V34.3096C24.7617 33.9222 24.8171 33.5658 24.9277 33.2402C25.0384 32.9115 25.1995 32.6266 25.4111 32.3857C25.6227 32.1449 25.8815 31.9577 26.1875 31.8242C26.4935 31.6875 26.8418 31.6191 27.2324 31.6191C27.6296 31.6191 27.9811 31.6875 28.2871 31.8242C28.5964 31.9577 28.8568 32.1449 29.0684 32.3857C29.2799 32.6266 29.4411 32.9115 29.5518 33.2402C29.6624 33.5658 29.7178 33.9222 29.7178 34.3096V34.4121C29.7178 34.7962 29.6624 35.1527 29.5518 35.4814C29.4411 35.807 29.2799 36.0918 29.0684 36.3359C28.8568 36.5768 28.598 36.764 28.292 36.8975C27.986 37.0309 27.6361 37.0977 27.2422 37.0977C26.8516 37.0977 26.5016 37.0309 26.1924 36.8975C25.8831 36.764 25.6227 36.5768 25.4111 36.3359C25.1995 36.0918 25.0384 35.807 24.9277 35.4814C24.8171 35.1527 24.7617 34.7962 24.7617 34.4121ZM26.0508 34.3096V34.4121C26.0508 34.6432 26.0736 34.8597 26.1191 35.0615C26.1647 35.2633 26.2347 35.4408 26.3291 35.5938C26.4235 35.7467 26.5456 35.8672 26.6953 35.9551C26.8483 36.0397 27.0306 36.082 27.2422 36.082C27.4505 36.082 27.6296 36.0397 27.7793 35.9551C27.929 35.8672 28.0511 35.7467 28.1455 35.5938C28.2432 35.4408 28.3148 35.2633 28.3604 35.0615C28.4059 34.8597 28.4287 34.6432 28.4287 34.4121V34.3096C28.4287 34.0817 28.4059 33.8685 28.3604 33.6699C28.3148 33.4681 28.2432 33.2907 28.1455 33.1377C28.0511 32.9814 27.9274 32.8594 27.7744 32.7715C27.6247 32.6803 27.444 32.6348 27.2324 32.6348C27.0241 32.6348 26.8451 32.6803 26.6953 32.7715C26.5456 32.8594 26.4235 32.9814 26.3291 33.1377C26.2347 33.2907 26.1647 33.4681 26.1191 33.6699C26.0736 33.8685 26.0508 34.0817 26.0508 34.3096ZM34.0146 31.7168H35.1865V36.8389C35.1865 37.3174 35.0824 37.7227 34.874 38.0547C34.6689 38.39 34.3809 38.6439 34.0098 38.8164C33.6387 38.9922 33.2074 39.0801 32.7158 39.0801C32.5042 39.0801 32.2747 39.0508 32.0273 38.9922C31.7832 38.9336 31.5472 38.8408 31.3193 38.7139C31.0947 38.5902 30.9076 38.429 30.7578 38.2305L31.3389 37.4688C31.5146 37.6738 31.7132 37.8285 31.9346 37.9326C32.1559 38.04 32.3952 38.0938 32.6523 38.0938C32.9128 38.0938 33.1341 38.0449 33.3164 37.9473C33.502 37.8529 33.6436 37.7129 33.7412 37.5273C33.8421 37.3451 33.8926 37.1204 33.8926 36.8535V32.9229L34.0146 31.7168ZM30.4453 34.4219V34.3193C30.4453 33.9157 30.4941 33.5495 30.5918 33.2207C30.6895 32.8887 30.8294 32.6038 31.0117 32.3662C31.1973 32.1286 31.4202 31.9447 31.6807 31.8145C31.9443 31.6842 32.2406 31.6191 32.5693 31.6191C32.9176 31.6191 33.2106 31.6826 33.4482 31.8096C33.6891 31.9365 33.8877 32.1172 34.0439 32.3516C34.2035 32.5859 34.3271 32.8643 34.415 33.1865C34.5062 33.5055 34.5762 33.8571 34.625 34.2412V34.5195C34.5794 34.8939 34.5062 35.2373 34.4053 35.5498C34.3076 35.8623 34.1774 36.1357 34.0146 36.3701C33.8519 36.6012 33.6501 36.7803 33.4092 36.9072C33.1683 37.0342 32.8851 37.0977 32.5596 37.0977C32.234 37.0977 31.9411 37.0309 31.6807 36.8975C31.4202 36.764 31.1973 36.5768 31.0117 36.3359C30.8294 36.0951 30.6895 35.8118 30.5918 35.4863C30.4941 35.1608 30.4453 34.806 30.4453 34.4219ZM31.7344 34.3193V34.4219C31.7344 34.6497 31.7572 34.863 31.8027 35.0615C31.8483 35.2601 31.9183 35.4359 32.0127 35.5889C32.1071 35.7386 32.2259 35.8558 32.3691 35.9404C32.5124 36.0251 32.6833 36.0674 32.8818 36.0674C33.1488 36.0674 33.3669 36.012 33.5361 35.9014C33.7087 35.7874 33.8389 35.6328 33.9268 35.4375C34.0179 35.2389 34.0765 35.016 34.1025 34.7686V34.002C34.0863 33.8066 34.0505 33.626 33.9951 33.46C33.943 33.2939 33.8698 33.1507 33.7754 33.0303C33.681 32.9098 33.5605 32.8154 33.4141 32.7471C33.2676 32.6787 33.0934 32.6445 32.8916 32.6445C32.6963 32.6445 32.5254 32.6885 32.3789 32.7764C32.2324 32.861 32.112 32.9798 32.0176 33.1328C31.9232 33.2858 31.8516 33.4632 31.8027 33.665C31.7572 33.8669 31.7344 34.085 31.7344 34.3193ZM36.1191 34.4121V34.3096C36.1191 33.9222 36.1745 33.5658 36.2852 33.2402C36.3958 32.9115 36.557 32.6266 36.7686 32.3857C36.9801 32.1449 37.2389 31.9577 37.5449 31.8242C37.8509 31.6875 38.1992 31.6191 38.5898 31.6191C38.987 31.6191 39.3385 31.6875 39.6445 31.8242C39.9538 31.9577 40.2142 32.1449 40.4258 32.3857C40.6374 32.6266 40.7985 32.9115 40.9092 33.2402C41.0199 33.5658 41.0752 33.9222 41.0752 34.3096V34.4121C41.0752 34.7962 41.0199 35.1527 40.9092 35.4814C40.7985 35.807 40.6374 36.0918 40.4258 36.3359C40.2142 36.5768 39.9554 36.764 39.6494 36.8975C39.3434 37.0309 38.9935 37.0977 38.5996 37.0977C38.209 37.0977 37.859 37.0309 37.5498 36.8975C37.2406 36.764 36.9801 36.5768 36.7686 36.3359C36.557 36.0918 36.3958 35.807 36.2852 35.4814C36.1745 35.1527 36.1191 34.7962 36.1191 34.4121ZM37.4082 34.3096V34.4121C37.4082 34.6432 37.431 34.8597 37.4766 35.0615C37.5221 35.2633 37.5921 35.4408 37.6865 35.5938C37.7809 35.7467 37.903 35.8672 38.0527 35.9551C38.2057 36.0397 38.388 36.082 38.5996 36.082C38.8079 36.082 38.987 36.0397 39.1367 35.9551C39.2865 35.8672 39.4085 35.7467 39.5029 35.5938C39.6006 35.4408 39.6722 35.2633 39.7178 35.0615C39.7633 34.8597 39.7861 34.6432 39.7861 34.4121V34.3096C39.7861 34.0817 39.7633 33.8685 39.7178 33.6699C39.6722 33.4681 39.6006 33.2907 39.5029 33.1377C39.4085 32.9814 39.2848 32.8594 39.1318 32.7715C38.9821 32.6803 38.8014 32.6348 38.5898 32.6348C38.3815 32.6348 38.2025 32.6803 38.0527 32.7715C37.903 32.8594 37.7809 32.9814 37.6865 33.1377C37.5921 33.2907 37.5221 33.4681 37.4766 33.6699C37.431 33.8685 37.4082 34.0817 37.4082 34.3096Z" fill="#F9FAFB"/>
<path d="M1 3C1 1.89543 1.89543 1 3 1H232C233.105 1 234 1.89543 234 3V17H1V3Z" fill="#71717A"/>
<rect x="37.1735" y="7" width="17.0228" height="4" rx="1" fill="#F3F4F6"/>
<rect x="62.7078" y="7" width="17.0228" height="4" rx="1" fill="#F3F4F6"/>
<rect x="88.242" y="7" width="17.0228" height="4" rx="1" fill="#F3F4F6"/>
<rect x="113.776" y="7" width="17.0228" height="4" rx="1" fill="#F3F4F6"/>
<path d="M17.8232 6.50563L13.5557 10.0204V13.8139C13.5557 13.9121 13.5947 14.0063 13.6642 14.0757C13.7336 14.1452 13.8278 14.1842 13.9261 14.1842L16.5198 14.1775C16.6177 14.177 16.7115 14.1378 16.7805 14.0684C16.8496 13.999 16.8883 13.9051 16.8883 13.8072V11.5918C16.8883 11.4936 16.9274 11.3994 16.9968 11.3299C17.0663 11.2605 17.1605 11.2215 17.2587 11.2215H18.74C18.8383 11.2215 18.9325 11.2605 19.0019 11.3299C19.0714 11.3994 19.1104 11.4936 19.1104 11.5918V13.8055C19.1102 13.8543 19.1197 13.9025 19.1382 13.9476C19.1568 13.9927 19.184 14.0336 19.2185 14.0682C19.2529 14.1027 19.2937 14.13 19.3387 14.1487C19.3837 14.1674 19.432 14.177 19.4807 14.177L22.0736 14.1842C22.1718 14.1842 22.266 14.1452 22.3355 14.0757C22.4049 14.0063 22.4439 13.9121 22.4439 13.8139V10.0179L18.1774 6.50563C18.1272 6.4652 18.0647 6.44316 18.0003 6.44316C17.9359 6.44316 17.8734 6.4652 17.8232 6.50563V6.50563ZM24.5641 8.89457L22.6291 7.29955V4.09355C22.6291 4.01989 22.5998 3.94924 22.5477 3.89715C22.4957 3.84506 22.425 3.8158 22.3513 3.8158H21.0551C20.9815 3.8158 20.9108 3.84506 20.8587 3.89715C20.8067 3.94924 20.7774 4.01989 20.7774 4.09355V5.77421L18.7051 4.06925C18.5062 3.9056 18.2567 3.81612 17.9991 3.81612C17.7416 3.81612 17.492 3.9056 17.2932 4.06925L11.4341 8.89457C11.406 8.91782 11.3827 8.94638 11.3657 8.97862C11.3486 9.01086 11.338 9.04616 11.3346 9.08248C11.3311 9.11881 11.3349 9.15546 11.3456 9.19034C11.3563 9.22521 11.3738 9.25763 11.3971 9.28574L11.9873 10.0033C12.0105 10.0315 12.0391 10.0548 12.0713 10.072C12.1035 10.0892 12.1388 10.0998 12.1752 10.1033C12.2116 10.1068 12.2483 10.1031 12.2832 10.0924C12.3181 10.0817 12.3506 10.0643 12.3787 10.041L17.8232 5.55663C17.8734 5.5162 17.9359 5.49416 18.0003 5.49416C18.0647 5.49416 18.1272 5.5162 18.1774 5.55663L23.6221 10.041C23.6502 10.0643 23.6826 10.0818 23.7175 10.0925C23.7524 10.1032 23.789 10.107 23.8253 10.1035C23.8617 10.1001 23.897 10.0895 23.9292 10.0725C23.9614 10.0554 23.99 10.0321 24.0133 10.004L24.6035 9.28644C24.6267 9.25816 24.6441 9.22558 24.6548 9.19055C24.6654 9.15552 24.6689 9.11874 24.6653 9.08232C24.6616 9.04591 24.6508 9.01058 24.6334 8.97835C24.6161 8.94613 24.5925 8.91766 24.5641 8.89457V8.89457Z" fill="#F3F4F6"/>
</svg>
