<svg width="235" height="52" viewBox="0 0 235 52" fill="none" xmlns="http://www.w3.org/2000/svg">
<rect x="0.5" y="0.5" width="234" height="51" rx="2.5" fill="#F9FAFB" stroke="#D1D5DB"/>
<rect x="105.265" y="5" width="118.096" height="18" rx="1" fill="#D4D4D8"/>
<rect x="11.6393" y="7" width="37.2374" height="14" rx="1" fill="#D4D4D8"/>
<path d="M24.1904 15.9453V17H20.6162V15.9453H24.1904ZM21.0215 9.89062V17H19.6787V9.89062H21.0215ZM24.7617 14.4121V14.3096C24.7617 13.9222 24.8171 13.5658 24.9277 13.2402C25.0384 12.9115 25.1995 12.6266 25.4111 12.3857C25.6227 12.1449 25.8815 11.9577 26.1875 11.8242C26.4935 11.6875 26.8418 11.6191 27.2324 11.6191C27.6296 11.6191 27.9811 11.6875 28.2871 11.8242C28.5964 11.9577 28.8568 12.1449 29.0684 12.3857C29.2799 12.6266 29.4411 12.9115 29.5518 13.2402C29.6624 13.5658 29.7178 13.9222 29.7178 14.3096V14.4121C29.7178 14.7962 29.6624 15.1527 29.5518 15.4814C29.4411 15.807 29.2799 16.0918 29.0684 16.3359C28.8568 16.5768 28.598 16.764 28.292 16.8975C27.986 17.0309 27.6361 17.0977 27.2422 17.0977C26.8516 17.0977 26.5016 17.0309 26.1924 16.8975C25.8831 16.764 25.6227 16.5768 25.4111 16.3359C25.1995 16.0918 25.0384 15.807 24.9277 15.4814C24.8171 15.1527 24.7617 14.7962 24.7617 14.4121ZM26.0508 14.3096V14.4121C26.0508 14.6432 26.0736 14.8597 26.1191 15.0615C26.1647 15.2633 26.2347 15.4408 26.3291 15.5938C26.4235 15.7467 26.5456 15.8672 26.6953 15.9551C26.8483 16.0397 27.0306 16.082 27.2422 16.082C27.4505 16.082 27.6296 16.0397 27.7793 15.9551C27.929 15.8672 28.0511 15.7467 28.1455 15.5938C28.2432 15.4408 28.3148 15.2633 28.3604 15.0615C28.4059 14.8597 28.4287 14.6432 28.4287 14.4121V14.3096C28.4287 14.0817 28.4059 13.8685 28.3604 13.6699C28.3148 13.4681 28.2432 13.2907 28.1455 13.1377C28.0511 12.9814 27.9274 12.8594 27.7744 12.7715C27.6247 12.6803 27.444 12.6348 27.2324 12.6348C27.0241 12.6348 26.8451 12.6803 26.6953 12.7715C26.5456 12.8594 26.4235 12.9814 26.3291 13.1377C26.2347 13.2907 26.1647 13.4681 26.1191 13.6699C26.0736 13.8685 26.0508 14.0817 26.0508 14.3096ZM34.0146 11.7168H35.1865V16.8389C35.1865 17.3174 35.0824 17.7227 34.874 18.0547C34.6689 18.39 34.3809 18.6439 34.0098 18.8164C33.6387 18.9922 33.2074 19.0801 32.7158 19.0801C32.5042 19.0801 32.2747 19.0508 32.0273 18.9922C31.7832 18.9336 31.5472 18.8408 31.3193 18.7139C31.0947 18.5902 30.9076 18.429 30.7578 18.2305L31.3389 17.4688C31.5146 17.6738 31.7132 17.8285 31.9346 17.9326C32.1559 18.04 32.3952 18.0938 32.6523 18.0938C32.9128 18.0938 33.1341 18.0449 33.3164 17.9473C33.502 17.8529 33.6436 17.7129 33.7412 17.5273C33.8421 17.3451 33.8926 17.1204 33.8926 16.8535V12.9229L34.0146 11.7168ZM30.4453 14.4219V14.3193C30.4453 13.9157 30.4941 13.5495 30.5918 13.2207C30.6895 12.8887 30.8294 12.6038 31.0117 12.3662C31.1973 12.1286 31.4202 11.9447 31.6807 11.8145C31.9443 11.6842 32.2406 11.6191 32.5693 11.6191C32.9176 11.6191 33.2106 11.6826 33.4482 11.8096C33.6891 11.9365 33.8877 12.1172 34.0439 12.3516C34.2035 12.5859 34.3271 12.8643 34.415 13.1865C34.5062 13.5055 34.5762 13.8571 34.625 14.2412V14.5195C34.5794 14.8939 34.5062 15.2373 34.4053 15.5498C34.3076 15.8623 34.1774 16.1357 34.0146 16.3701C33.8519 16.6012 33.6501 16.7803 33.4092 16.9072C33.1683 17.0342 32.8851 17.0977 32.5596 17.0977C32.234 17.0977 31.9411 17.0309 31.6807 16.8975C31.4202 16.764 31.1973 16.5768 31.0117 16.3359C30.8294 16.0951 30.6895 15.8118 30.5918 15.4863C30.4941 15.1608 30.4453 14.806 30.4453 14.4219ZM31.7344 14.3193V14.4219C31.7344 14.6497 31.7572 14.863 31.8027 15.0615C31.8483 15.2601 31.9183 15.4359 32.0127 15.5889C32.1071 15.7386 32.2259 15.8558 32.3691 15.9404C32.5124 16.0251 32.6833 16.0674 32.8818 16.0674C33.1488 16.0674 33.3669 16.012 33.5361 15.9014C33.7087 15.7874 33.8389 15.6328 33.9268 15.4375C34.0179 15.2389 34.0765 15.016 34.1025 14.7686V14.002C34.0863 13.8066 34.0505 13.626 33.9951 13.46C33.943 13.2939 33.8698 13.1507 33.7754 13.0303C33.681 12.9098 33.5605 12.8154 33.4141 12.7471C33.2676 12.6787 33.0934 12.6445 32.8916 12.6445C32.6963 12.6445 32.5254 12.6885 32.3789 12.7764C32.2324 12.861 32.112 12.9798 32.0176 13.1328C31.9232 13.2858 31.8516 13.4632 31.8027 13.665C31.7572 13.8669 31.7344 14.085 31.7344 14.3193ZM36.1191 14.4121V14.3096C36.1191 13.9222 36.1745 13.5658 36.2852 13.2402C36.3958 12.9115 36.557 12.6266 36.7686 12.3857C36.9801 12.1449 37.2389 11.9577 37.5449 11.8242C37.8509 11.6875 38.1992 11.6191 38.5898 11.6191C38.987 11.6191 39.3385 11.6875 39.6445 11.8242C39.9538 11.9577 40.2142 12.1449 40.4258 12.3857C40.6374 12.6266 40.7985 12.9115 40.9092 13.2402C41.0199 13.5658 41.0752 13.9222 41.0752 14.3096V14.4121C41.0752 14.7962 41.0199 15.1527 40.9092 15.4814C40.7985 15.807 40.6374 16.0918 40.4258 16.3359C40.2142 16.5768 39.9554 16.764 39.6494 16.8975C39.3434 17.0309 38.9935 17.0977 38.5996 17.0977C38.209 17.0977 37.859 17.0309 37.5498 16.8975C37.2406 16.764 36.9801 16.5768 36.7686 16.3359C36.557 16.0918 36.3958 15.807 36.2852 15.4814C36.1745 15.1527 36.1191 14.7962 36.1191 14.4121ZM37.4082 14.3096V14.4121C37.4082 14.6432 37.431 14.8597 37.4766 15.0615C37.5221 15.2633 37.5921 15.4408 37.6865 15.5938C37.7809 15.7467 37.903 15.8672 38.0527 15.9551C38.2057 16.0397 38.388 16.082 38.5996 16.082C38.8079 16.082 38.987 16.0397 39.1367 15.9551C39.2865 15.8672 39.4085 15.7467 39.5029 15.5938C39.6006 15.4408 39.6722 15.2633 39.7178 15.0615C39.7633 14.8597 39.7861 14.6432 39.7861 14.4121V14.3096C39.7861 14.0817 39.7633 13.8685 39.7178 13.6699C39.6722 13.4681 39.6006 13.2907 39.5029 13.1377C39.4085 12.9814 39.2848 12.8594 39.1318 12.7715C38.9821 12.6803 38.8014 12.6348 38.5898 12.6348C38.3815 12.6348 38.2025 12.6803 38.0527 12.7715C37.903 12.8594 37.7809 12.9814 37.6865 13.1377C37.5921 13.2907 37.5221 13.4681 37.4766 13.6699C37.431 13.8685 37.4082 14.0817 37.4082 14.3096Z" fill="#F9FAFB"/>
<rect x="1" y="31" width="233" height="16" fill="#71717A"/>
<rect x="36" y="37" width="17.0228" height="4" rx="1" fill="#F3F4F6"/>
<rect x="61.5342" y="37" width="17.0228" height="4" rx="1" fill="#F3F4F6"/>
<rect x="87.0685" y="37" width="17.0228" height="4" rx="1" fill="#F3F4F6"/>
<rect x="112.603" y="37" width="17.0228" height="4" rx="1" fill="#F3F4F6"/>
<path d="M17.8232 36.5056L13.5557 40.0204V43.8139C13.5557 43.9121 13.5948 44.0063 13.6642 44.0757C13.7337 44.1452 13.8279 44.1842 13.9261 44.1842L16.5199 44.1775C16.6178 44.177 16.7115 44.1378 16.7805 44.0684C16.8496 43.999 16.8883 43.9051 16.8883 43.8072V41.5918C16.8883 41.4936 16.9274 41.3994 16.9968 41.3299C17.0663 41.2605 17.1605 41.2215 17.2587 41.2215H18.7401C18.8383 41.2215 18.9325 41.2605 19.0019 41.3299C19.0714 41.3994 19.1104 41.4936 19.1104 41.5918V43.8055C19.1102 43.8543 19.1197 43.9025 19.1383 43.9476C19.1568 43.9927 19.1841 44.0336 19.2185 44.0682C19.2529 44.1027 19.2937 44.13 19.3387 44.1487C19.3838 44.1674 19.432 44.177 19.4807 44.177L22.0736 44.1842C22.1718 44.1842 22.266 44.1452 22.3355 44.0757C22.4049 44.0063 22.4439 43.9121 22.4439 43.8139V40.0179L18.1774 36.5056C18.1272 36.4652 18.0647 36.4432 18.0003 36.4432C17.9359 36.4432 17.8734 36.4652 17.8232 36.5056V36.5056ZM24.5641 38.8946L22.6291 37.2996V34.0936C22.6291 34.0199 22.5998 33.9492 22.5478 33.8971C22.4957 33.8451 22.425 33.8158 22.3514 33.8158H21.0552C20.9815 33.8158 20.9108 33.8451 20.8588 33.8971C20.8067 33.9492 20.7774 34.0199 20.7774 34.0936V35.7742L18.7051 34.0692C18.5062 33.9056 18.2567 33.8161 17.9991 33.8161C17.7416 33.8161 17.492 33.9056 17.2932 34.0692L11.4341 38.8946C11.406 38.9178 11.3827 38.9464 11.3657 38.9786C11.3486 39.0109 11.338 39.0462 11.3346 39.0825C11.3311 39.1188 11.3349 39.1555 11.3456 39.1903C11.3563 39.2252 11.3738 39.2576 11.3971 39.2857L11.9873 40.0033C12.0105 40.0315 12.0391 40.0548 12.0713 40.072C12.1035 40.0892 12.1389 40.0998 12.1752 40.1033C12.2116 40.1068 12.2483 40.1031 12.2832 40.0924C12.3181 40.0817 12.3506 40.0643 12.3787 40.041L17.8232 35.5566C17.8734 35.5162 17.9359 35.4942 18.0003 35.4942C18.0647 35.4942 18.1272 35.5162 18.1774 35.5566L23.6221 40.041C23.6502 40.0643 23.6826 40.0818 23.7175 40.0925C23.7524 40.1032 23.789 40.107 23.8253 40.1035C23.8617 40.1001 23.897 40.0895 23.9292 40.0725C23.9615 40.0554 23.99 40.0321 24.0133 40.004L24.6035 39.2864C24.6267 39.2582 24.6442 39.2256 24.6548 39.1905C24.6654 39.1555 24.6689 39.1187 24.6653 39.0823C24.6616 39.0459 24.6508 39.0106 24.6335 38.9784C24.6161 38.9461 24.5925 38.9177 24.5641 38.8946V38.8946Z" fill="#F3F4F6"/>
</svg>
