<svg width="235" height="69" viewBox="0 0 235 69" fill="none" xmlns="http://www.w3.org/2000/svg">
<rect x="0.5" y="0.5" width="234" height="68" rx="2.5" fill="#F9FAFB" stroke="#F3F4F6"/>
<rect x="58.4521" y="47" width="118.096" height="18" rx="1" fill="#E5E7EB"/>
<rect x="98.8813" y="29" width="37.2374" height="14" rx="1" fill="#D4D4D8"/>
<path d="M110.455 37.9453V39H106.881V37.9453H110.455ZM107.286 31.8906V39H105.944V31.8906H107.286ZM111.027 36.4121V36.3096C111.027 35.9222 111.082 35.5658 111.193 35.2402C111.303 34.9115 111.464 34.6266 111.676 34.3857C111.888 34.1449 112.146 33.9577 112.452 33.8242C112.758 33.6875 113.107 33.6191 113.497 33.6191C113.894 33.6191 114.246 33.6875 114.552 33.8242C114.861 33.9577 115.122 34.1449 115.333 34.3857C115.545 34.6266 115.706 34.9115 115.817 35.2402C115.927 35.5658 115.983 35.9222 115.983 36.3096V36.4121C115.983 36.7962 115.927 37.1527 115.817 37.4814C115.706 37.807 115.545 38.0918 115.333 38.3359C115.122 38.5768 114.863 38.764 114.557 38.8975C114.251 39.0309 113.901 39.0977 113.507 39.0977C113.116 39.0977 112.767 39.0309 112.457 38.8975C112.148 38.764 111.888 38.5768 111.676 38.3359C111.464 38.0918 111.303 37.807 111.193 37.4814C111.082 37.1527 111.027 36.7962 111.027 36.4121ZM112.316 36.3096V36.4121C112.316 36.6432 112.338 36.8597 112.384 37.0615C112.43 37.2633 112.5 37.4408 112.594 37.5938C112.688 37.7467 112.81 37.8672 112.96 37.9551C113.113 38.0397 113.296 38.082 113.507 38.082C113.715 38.082 113.894 38.0397 114.044 37.9551C114.194 37.8672 114.316 37.7467 114.41 37.5938C114.508 37.4408 114.58 37.2633 114.625 37.0615C114.671 36.8597 114.694 36.6432 114.694 36.4121V36.3096C114.694 36.0817 114.671 35.8685 114.625 35.6699C114.58 35.4681 114.508 35.2907 114.41 35.1377C114.316 34.9814 114.192 34.8594 114.039 34.7715C113.89 34.6803 113.709 34.6348 113.497 34.6348C113.289 34.6348 113.11 34.6803 112.96 34.7715C112.81 34.8594 112.688 34.9814 112.594 35.1377C112.5 35.2907 112.43 35.4681 112.384 35.6699C112.338 35.8685 112.316 36.0817 112.316 36.3096ZM120.28 33.7168H121.451V38.8389C121.451 39.3174 121.347 39.7227 121.139 40.0547C120.934 40.39 120.646 40.6439 120.275 40.8164C119.904 40.9922 119.472 41.0801 118.981 41.0801C118.769 41.0801 118.54 41.0508 118.292 40.9922C118.048 40.9336 117.812 40.8408 117.584 40.7139C117.36 40.5902 117.172 40.429 117.023 40.2305L117.604 39.4688C117.78 39.6738 117.978 39.8285 118.199 39.9326C118.421 40.04 118.66 40.0938 118.917 40.0938C119.178 40.0938 119.399 40.0449 119.581 39.9473C119.767 39.8529 119.908 39.7129 120.006 39.5273C120.107 39.3451 120.158 39.1204 120.158 38.8535V34.9229L120.28 33.7168ZM116.71 36.4219V36.3193C116.71 35.9157 116.759 35.5495 116.857 35.2207C116.954 34.8887 117.094 34.6038 117.277 34.3662C117.462 34.1286 117.685 33.9447 117.946 33.8145C118.209 33.6842 118.505 33.6191 118.834 33.6191C119.183 33.6191 119.476 33.6826 119.713 33.8096C119.954 33.9365 120.153 34.1172 120.309 34.3516C120.468 34.5859 120.592 34.8643 120.68 35.1865C120.771 35.5055 120.841 35.8571 120.89 36.2412V36.5195C120.844 36.8939 120.771 37.2373 120.67 37.5498C120.573 37.8623 120.442 38.1357 120.28 38.3701C120.117 38.6012 119.915 38.7803 119.674 38.9072C119.433 39.0342 119.15 39.0977 118.824 39.0977C118.499 39.0977 118.206 39.0309 117.946 38.8975C117.685 38.764 117.462 38.5768 117.277 38.3359C117.094 38.0951 116.954 37.8118 116.857 37.4863C116.759 37.1608 116.71 36.806 116.71 36.4219ZM117.999 36.3193V36.4219C117.999 36.6497 118.022 36.863 118.068 37.0615C118.113 37.2601 118.183 37.4359 118.278 37.5889C118.372 37.7386 118.491 37.8558 118.634 37.9404C118.777 38.0251 118.948 38.0674 119.147 38.0674C119.414 38.0674 119.632 38.012 119.801 37.9014C119.974 37.7874 120.104 37.6328 120.192 37.4375C120.283 37.2389 120.341 37.016 120.367 36.7686V36.002C120.351 35.8066 120.315 35.626 120.26 35.46C120.208 35.2939 120.135 35.1507 120.04 35.0303C119.946 34.9098 119.825 34.8154 119.679 34.7471C119.533 34.6787 119.358 34.6445 119.157 34.6445C118.961 34.6445 118.79 34.6885 118.644 34.7764C118.497 34.861 118.377 34.9798 118.283 35.1328C118.188 35.2858 118.116 35.4632 118.068 35.665C118.022 35.8669 117.999 36.085 117.999 36.3193ZM122.384 36.4121V36.3096C122.384 35.9222 122.439 35.5658 122.55 35.2402C122.661 34.9115 122.822 34.6266 123.033 34.3857C123.245 34.1449 123.504 33.9577 123.81 33.8242C124.116 33.6875 124.464 33.6191 124.855 33.6191C125.252 33.6191 125.603 33.6875 125.909 33.8242C126.219 33.9577 126.479 34.1449 126.691 34.3857C126.902 34.6266 127.063 34.9115 127.174 35.2402C127.285 35.5658 127.34 35.9222 127.34 36.3096V36.4121C127.34 36.7962 127.285 37.1527 127.174 37.4814C127.063 37.807 126.902 38.0918 126.691 38.3359C126.479 38.5768 126.22 38.764 125.914 38.8975C125.608 39.0309 125.258 39.0977 124.865 39.0977C124.474 39.0977 124.124 39.0309 123.815 38.8975C123.505 38.764 123.245 38.5768 123.033 38.3359C122.822 38.0918 122.661 37.807 122.55 37.4814C122.439 37.1527 122.384 36.7962 122.384 36.4121ZM123.673 36.3096V36.4121C123.673 36.6432 123.696 36.8597 123.741 37.0615C123.787 37.2633 123.857 37.4408 123.951 37.5938C124.046 37.7467 124.168 37.8672 124.318 37.9551C124.471 38.0397 124.653 38.082 124.865 38.082C125.073 38.082 125.252 38.0397 125.402 37.9551C125.551 37.8672 125.673 37.7467 125.768 37.5938C125.866 37.4408 125.937 37.2633 125.983 37.0615C126.028 36.8597 126.051 36.6432 126.051 36.4121V36.3096C126.051 36.0817 126.028 35.8685 125.983 35.6699C125.937 35.4681 125.866 35.2907 125.768 35.1377C125.673 34.9814 125.55 34.8594 125.397 34.7715C125.247 34.6803 125.066 34.6348 124.855 34.6348C124.646 34.6348 124.467 34.6803 124.318 34.7715C124.168 34.8594 124.046 34.9814 123.951 35.1377C123.857 35.2907 123.787 35.4681 123.741 35.6699C123.696 35.8685 123.673 36.0817 123.673 36.3096Z" fill="#F9FAFB"/>
<mask id="path-5-inside-1_1474_8871" fill="white">
<path d="M1 5H234V21H1V5Z"/>
</mask>
<path d="M234 19H1V23H234V19Z" fill="#71717A" mask="url(#path-5-inside-1_1474_8871)"/>
<rect x="214.849" y="9" width="8.51142" height="8" rx="4" fill="#71717A"/>
<rect x="71.2192" y="11" width="17.0228" height="4" rx="1" fill="#71717A"/>
<rect x="96.7534" y="11" width="17.0228" height="4" rx="1" fill="#71717A"/>
<rect x="122.288" y="11" width="17.0228" height="4" rx="1" fill="#71717A"/>
<rect x="147.822" y="11" width="17.0228" height="4" rx="1" fill="#71717A"/>
<path d="M11.6393 8C11.6393 7.44772 12.087 7 12.6393 7H27.6621C28.2144 7 28.6621 7.44772 28.6621 8V19H11.6393V8Z" fill="#71717A"/>
<path d="M19.8409 11.3348L16.0002 14.3857V17.6785C16.0002 17.7638 16.0353 17.8456 16.0978 17.9058C16.1603 17.9661 16.2451 18 16.3335 18L18.6679 17.9942C18.756 17.9937 18.8403 17.9597 18.9025 17.8995C18.9646 17.8392 18.9995 17.7577 18.9995 17.6727V15.7497C18.9995 15.6645 19.0346 15.5827 19.0971 15.5224C19.1596 15.4622 19.2444 15.4283 19.3328 15.4283H20.666C20.7544 15.4283 20.8392 15.4622 20.9017 15.5224C20.9642 15.5827 20.9994 15.6645 20.9994 15.7497V17.6713C20.9992 17.7136 21.0077 17.7555 21.0244 17.7946C21.0411 17.8337 21.0656 17.8693 21.0966 17.8993C21.1276 17.9292 21.1644 17.953 21.2049 17.9692C21.2454 17.9854 21.2888 17.9938 21.3327 17.9938L23.6662 18C23.7546 18 23.8394 17.9661 23.9019 17.9058C23.9644 17.8456 23.9995 17.7638 23.9995 17.6785V14.3835L20.1596 11.3348C20.1145 11.2997 20.0582 11.2806 20.0003 11.2806C19.9423 11.2806 19.886 11.2997 19.8409 11.3348ZM25.9077 13.4085L24.1662 12.024V9.2411C24.1662 9.17716 24.1399 9.11583 24.093 9.07062C24.0461 9.0254 23.9825 9 23.9162 9H22.7496C22.6833 9 22.6198 9.0254 22.5729 9.07062C22.526 9.11583 22.4997 9.17716 22.4997 9.2411V10.6999L20.6346 9.22C20.4556 9.07795 20.231 9.00028 19.9992 9.00028C19.7674 9.00028 19.5428 9.07795 19.3639 9.22L14.0907 13.4085C14.0654 13.4287 14.0445 13.4535 14.0291 13.4814C14.0137 13.5094 14.0042 13.5401 14.0011 13.5716C13.998 13.6031 14.0014 13.6349 14.0111 13.6652C14.0207 13.6955 14.0365 13.7236 14.0574 13.748L14.5886 14.3709C14.6095 14.3954 14.6352 14.4156 14.6642 14.4305C14.6932 14.4454 14.725 14.4547 14.7577 14.4577C14.7904 14.4608 14.8234 14.4575 14.8549 14.4483C14.8863 14.439 14.9155 14.4238 14.9409 14.4036L19.8409 10.5111C19.886 10.476 19.9423 10.4569 20.0003 10.4569C20.0582 10.4569 20.1145 10.476 20.1596 10.5111L25.0599 14.4036C25.0852 14.4238 25.1144 14.439 25.1457 14.4483C25.1771 14.4576 25.2101 14.4609 25.2428 14.4579C25.2755 14.4549 25.3073 14.4457 25.3363 14.4309C25.3653 14.4161 25.391 14.3959 25.4119 14.3715L25.9431 13.7486C25.9641 13.7241 25.9797 13.6958 25.9893 13.6654C25.9988 13.635 26.002 13.6031 25.9987 13.5715C25.9955 13.5398 25.9857 13.5092 25.9701 13.4812C25.9545 13.4532 25.9333 13.4285 25.9077 13.4085Z" fill="#F3F4F6"/>
</svg>
