<svg width="235" height="69" viewBox="0 0 235 69" fill="none" xmlns="http://www.w3.org/2000/svg">
<rect x="0.5" y="0.5" width="234" height="68" rx="2.5" fill="#F9FAFB" stroke="#F3F4F6"/>
<rect x="58.4521" y="24" width="118.096" height="18" rx="1" fill="#E5E7EB"/>
<rect x="98.8813" y="6" width="37.2374" height="14" rx="1" fill="#D4D4D8"/>
<path d="M111.191 14.9453V16H107.616V14.9453H111.191ZM108.022 8.89062V16H106.679V8.89062H108.022ZM111.762 13.4121V13.3096C111.762 12.9222 111.817 12.5658 111.928 12.2402C112.038 11.9115 112.2 11.6266 112.411 11.3857C112.623 11.1449 112.882 10.9577 113.188 10.8242C113.494 10.6875 113.842 10.6191 114.233 10.6191C114.63 10.6191 114.981 10.6875 115.287 10.8242C115.596 10.9577 115.857 11.1449 116.068 11.3857C116.28 11.6266 116.441 11.9115 116.552 12.2402C116.663 12.5658 116.718 12.9222 116.718 13.3096V13.4121C116.718 13.7962 116.663 14.1527 116.552 14.4814C116.441 14.807 116.28 15.0918 116.068 15.3359C115.857 15.5768 115.598 15.764 115.292 15.8975C114.986 16.0309 114.636 16.0977 114.242 16.0977C113.852 16.0977 113.502 16.0309 113.192 15.8975C112.883 15.764 112.623 15.5768 112.411 15.3359C112.2 15.0918 112.038 14.807 111.928 14.4814C111.817 14.1527 111.762 13.7962 111.762 13.4121ZM113.051 13.3096V13.4121C113.051 13.6432 113.074 13.8597 113.119 14.0615C113.165 14.2633 113.235 14.4408 113.329 14.5938C113.424 14.7467 113.546 14.8672 113.695 14.9551C113.848 15.0397 114.031 15.082 114.242 15.082C114.451 15.082 114.63 15.0397 114.779 14.9551C114.929 14.8672 115.051 14.7467 115.146 14.5938C115.243 14.4408 115.315 14.2633 115.36 14.0615C115.406 13.8597 115.429 13.6432 115.429 13.4121V13.3096C115.429 13.0817 115.406 12.8685 115.36 12.6699C115.315 12.4681 115.243 12.2907 115.146 12.1377C115.051 11.9814 114.927 11.8594 114.774 11.7715C114.625 11.6803 114.444 11.6348 114.233 11.6348C114.024 11.6348 113.845 11.6803 113.695 11.7715C113.546 11.8594 113.424 11.9814 113.329 12.1377C113.235 12.2907 113.165 12.4681 113.119 12.6699C113.074 12.8685 113.051 13.0817 113.051 13.3096ZM121.015 10.7168H122.187V15.8389C122.187 16.3174 122.082 16.7227 121.874 17.0547C121.669 17.39 121.381 17.6439 121.01 17.8164C120.639 17.9922 120.207 18.0801 119.716 18.0801C119.504 18.0801 119.275 18.0508 119.027 17.9922C118.783 17.9336 118.547 17.8408 118.319 17.7139C118.095 17.5902 117.908 17.429 117.758 17.2305L118.339 16.4688C118.515 16.6738 118.713 16.8285 118.935 16.9326C119.156 17.04 119.395 17.0938 119.652 17.0938C119.913 17.0938 120.134 17.0449 120.316 16.9473C120.502 16.8529 120.644 16.7129 120.741 16.5273C120.842 16.3451 120.893 16.1204 120.893 15.8535V11.9229L121.015 10.7168ZM117.445 13.4219V13.3193C117.445 12.9157 117.494 12.5495 117.592 12.2207C117.69 11.8887 117.83 11.6038 118.012 11.3662C118.197 11.1286 118.42 10.9447 118.681 10.8145C118.944 10.6842 119.241 10.6191 119.569 10.6191C119.918 10.6191 120.211 10.6826 120.448 10.8096C120.689 10.9365 120.888 11.1172 121.044 11.3516C121.204 11.5859 121.327 11.8643 121.415 12.1865C121.506 12.5055 121.576 12.8571 121.625 13.2412V13.5195C121.58 13.8939 121.506 14.2373 121.405 14.5498C121.308 14.8623 121.177 15.1357 121.015 15.3701C120.852 15.6012 120.65 15.7803 120.409 15.9072C120.168 16.0342 119.885 16.0977 119.56 16.0977C119.234 16.0977 118.941 16.0309 118.681 15.8975C118.42 15.764 118.197 15.5768 118.012 15.3359C117.83 15.0951 117.69 14.8118 117.592 14.4863C117.494 14.1608 117.445 13.806 117.445 13.4219ZM118.734 13.3193V13.4219C118.734 13.6497 118.757 13.863 118.803 14.0615C118.848 14.2601 118.918 14.4359 119.013 14.5889C119.107 14.7386 119.226 14.8558 119.369 14.9404C119.512 15.0251 119.683 15.0674 119.882 15.0674C120.149 15.0674 120.367 15.012 120.536 14.9014C120.709 14.7874 120.839 14.6328 120.927 14.4375C121.018 14.2389 121.077 14.016 121.103 13.7686V13.002C121.086 12.8066 121.051 12.626 120.995 12.46C120.943 12.2939 120.87 12.1507 120.775 12.0303C120.681 11.9098 120.561 11.8154 120.414 11.7471C120.268 11.6787 120.094 11.6445 119.892 11.6445C119.696 11.6445 119.525 11.6885 119.379 11.7764C119.233 11.861 119.112 11.9798 119.018 12.1328C118.923 12.2858 118.852 12.4632 118.803 12.665C118.757 12.8669 118.734 13.085 118.734 13.3193ZM123.119 13.4121V13.3096C123.119 12.9222 123.175 12.5658 123.285 12.2402C123.396 11.9115 123.557 11.6266 123.769 11.3857C123.98 11.1449 124.239 10.9577 124.545 10.8242C124.851 10.6875 125.199 10.6191 125.59 10.6191C125.987 10.6191 126.339 10.6875 126.645 10.8242C126.954 10.9577 127.214 11.1449 127.426 11.3857C127.637 11.6266 127.799 11.9115 127.909 12.2402C128.02 12.5658 128.075 12.9222 128.075 13.3096V13.4121C128.075 13.7962 128.02 14.1527 127.909 14.4814C127.799 14.807 127.637 15.0918 127.426 15.3359C127.214 15.5768 126.955 15.764 126.649 15.8975C126.344 16.0309 125.994 16.0977 125.6 16.0977C125.209 16.0977 124.859 16.0309 124.55 15.8975C124.241 15.764 123.98 15.5768 123.769 15.3359C123.557 15.0918 123.396 14.807 123.285 14.4814C123.175 14.1527 123.119 13.7962 123.119 13.4121ZM124.408 13.3096V13.4121C124.408 13.6432 124.431 13.8597 124.477 14.0615C124.522 14.2633 124.592 14.4408 124.687 14.5938C124.781 14.7467 124.903 14.8672 125.053 14.9551C125.206 15.0397 125.388 15.082 125.6 15.082C125.808 15.082 125.987 15.0397 126.137 14.9551C126.287 14.8672 126.409 14.7467 126.503 14.5938C126.601 14.4408 126.672 14.2633 126.718 14.0615C126.763 13.8597 126.786 13.6432 126.786 13.4121V13.3096C126.786 13.0817 126.763 12.8685 126.718 12.6699C126.672 12.4681 126.601 12.2907 126.503 12.1377C126.409 11.9814 126.285 11.8594 126.132 11.7715C125.982 11.6803 125.802 11.6348 125.59 11.6348C125.382 11.6348 125.203 11.6803 125.053 11.7715C124.903 11.8594 124.781 11.9814 124.687 12.1377C124.592 12.2907 124.522 12.4681 124.477 12.6699C124.431 12.8685 124.408 13.0817 124.408 13.3096Z" fill="#FAFAFA"/>
<mask id="path-5-inside-1_1474_8851" fill="white">
<path d="M1 50H234V66H1V50Z"/>
</mask>
<path d="M1 52H234V48H1V52Z" fill="#6B7171" mask="url(#path-5-inside-1_1474_8851)"/>
<rect x="214.849" y="54" width="8.51142" height="8" rx="4" fill="#71717A"/>
<rect x="71.2192" y="56" width="17.0228" height="4" rx="1" fill="#71717A"/>
<rect x="96.7534" y="56" width="17.0228" height="4" rx="1" fill="#71717A"/>
<rect x="122.288" y="56" width="17.0228" height="4" rx="1" fill="#71717A"/>
<rect x="147.822" y="56" width="17.0228" height="4" rx="1" fill="#71717A"/>
<path d="M12 50H28V65C28 65.5523 27.5523 66 27 66H13C12.4477 66 12 65.5523 12 65V50Z" fill="#71717A"/>
<path d="M19.8409 56.3348L16.0002 59.3857V62.6785C16.0002 62.7638 16.0353 62.8456 16.0978 62.9058C16.1603 62.9661 16.2451 63 16.3335 63L18.6679 62.9942C18.756 62.9937 18.8403 62.9597 18.9025 62.8995C18.9646 62.8392 18.9995 62.7577 18.9995 62.6727V60.7497C18.9995 60.6645 19.0346 60.5827 19.0971 60.5224C19.1596 60.4622 19.2444 60.4283 19.3328 60.4283H20.666C20.7544 60.4283 20.8392 60.4622 20.9017 60.5224C20.9642 60.5827 20.9994 60.6645 20.9994 60.7497V62.6713C20.9992 62.7136 21.0077 62.7555 21.0244 62.7946C21.0411 62.8337 21.0656 62.8693 21.0966 62.8993C21.1276 62.9292 21.1644 62.953 21.2049 62.9692C21.2454 62.9854 21.2888 62.9938 21.3327 62.9938L23.6662 63C23.7546 63 23.8394 62.9661 23.9019 62.9058C23.9644 62.8456 23.9995 62.7638 23.9995 62.6785V59.3835L20.1596 56.3348C20.1145 56.2997 20.0582 56.2806 20.0003 56.2806C19.9423 56.2806 19.886 56.2997 19.8409 56.3348ZM25.9077 58.4085L24.1662 57.024V54.2411C24.1662 54.1772 24.1399 54.1158 24.093 54.0706C24.0461 54.0254 23.9825 54 23.9162 54H22.7496C22.6833 54 22.6198 54.0254 22.5729 54.0706C22.526 54.1158 22.4997 54.1772 22.4997 54.2411V55.6999L20.6346 54.22C20.4556 54.078 20.231 54.0003 19.9992 54.0003C19.7674 54.0003 19.5428 54.078 19.3639 54.22L14.0907 58.4085C14.0654 58.4287 14.0445 58.4535 14.0291 58.4814C14.0137 58.5094 14.0042 58.5401 14.0011 58.5716C13.998 58.6031 14.0014 58.6349 14.0111 58.6652C14.0207 58.6955 14.0365 58.7236 14.0574 58.748L14.5886 59.3709C14.6095 59.3954 14.6352 59.4156 14.6642 59.4305C14.6932 59.4454 14.725 59.4547 14.7577 59.4577C14.7904 59.4608 14.8234 59.4575 14.8549 59.4483C14.8863 59.439 14.9155 59.4238 14.9409 59.4036L19.8409 55.5111C19.886 55.476 19.9423 55.4569 20.0003 55.4569C20.0582 55.4569 20.1145 55.476 20.1596 55.5111L25.0599 59.4036C25.0852 59.4238 25.1144 59.439 25.1457 59.4483C25.1771 59.4576 25.2101 59.4609 25.2428 59.4579C25.2755 59.4549 25.3073 59.4457 25.3363 59.4309C25.3653 59.4161 25.391 59.3959 25.4119 59.3715L25.9431 58.7486C25.9641 58.7241 25.9797 58.6958 25.9893 58.6654C25.9988 58.635 26.002 58.6031 25.9987 58.5715C25.9955 58.5398 25.9857 58.5092 25.9701 58.4812C25.9545 58.4532 25.9333 58.4285 25.9077 58.4085Z" fill="#F3F4F6"/>
</svg>
