<svg width="120" height="100" fill="none" xmlns="http://www.w3.org/2000/svg">
  <rect width="120" height="100" rx="4" fill="#E4E4E7"/>
  <mask id="a" fill="#fff">
    <path d="M0 4a4 4 0 0 1 4-4h112a4 4 0 0 1 4 4v12H0V4Z"/>
  </mask>
  <path d="M0 4a4 4 0 0 1 4-4h112a4 4 0 0 1 4 4v12H0V4Z" fill="#FAFAFA"/>
  <path d="M-1 4a5 5 0 0 1 5-5h112a5 5 0 0 1 5 5h-2a3 3 0 0 0-3-3H4a3 3 0 0 0-3 3h-2Zm121 12H0h120ZM-1 16V4a5 5 0 0 1 5-5v2a3 3 0 0 0-3 3v12h-2ZM116-1a5 5 0 0 1 5 5v12h-2V4a3 3 0 0 0-3-3v-2Z" fill="#71717A" mask="url(#a)"/>
  <path d="m12.89 7.441-2.668 2.197v2.37a.232.232 0 0 0 .232.232l1.62-.004a.232.232 0 0 0 .231-.232V10.62a.232.232 0 0 1 .232-.232h.925a.232.232 0 0 1 .232.232v1.384a.232.232 0 0 0 .231.232l1.621.004a.231.231 0 0 0 .232-.231V9.636L13.11 7.441a.176.176 0 0 0-.222 0Zm4.213 1.493-1.21-.997V5.933a.173.173 0 0 0-.173-.173h-.81a.174.174 0 0 0-.174.173v1.05L13.44 5.919a.694.694 0 0 0-.883 0L8.896 8.934a.173.173 0 0 0-.023.245l.37.448a.174.174 0 0 0 .244.024l3.402-2.803a.176.176 0 0 1 .222 0l3.403 2.803a.174.174 0 0 0 .244-.024l.37-.448a.173.173 0 0 0-.025-.245Z" fill="#71717A"/>
  <rect x="26" y="8" width="12" height="3" rx="1.5" fill="#71717A"/>
  <rect x="42" y="8" width="12" height="3" rx="1.5" fill="#71717A"/>
  <rect x="58" y="8" width="12" height="3" rx="1.5" fill="#71717A"/>
  <rect x="74" y="8" width="12" height="3" rx="1.5" fill="#71717A"/>
  <circle cx="108" cy="9" r="4" fill="#71717A"/>
  <mask id="b" fill="#fff">
    <path d="M0 16h120v29a4 4 0 0 1-4 4H4a4 4 0 0 1-4-4V16Z"/>
  </mask>
  <path d="M0 16h120v29a4 4 0 0 1-4 4H4a4 4 0 0 1-4-4V16Z" fill="#FAFAFA"/>
  <path stroke="#71717A" d="M1 18h118"/>
  <rect x="51" y="22.5" width="18" height="4" rx="1" fill="#71717A"/>
  <rect x="30" y="30.5" width="60" height="12" rx="4" fill="#71717A"/>
  <path d="M0 16h120H0Zm121 29a5 5 0 0 1-5 5H4a5 5 0 0 1-5-5h2a3 3 0 0 0 3 3h112a3 3 0 0 0 3-3h2ZM4 50a5 5 0 0 1-5-5V16h2v29a3 3 0 0 0 3 3v2Zm117-34v29a5 5 0 0 1-5 5v-2a3 3 0 0 0 3-3V16h2Z" fill="#71717A" mask="url(#b)"/>
</svg>
