<svg width="120" height="100" fill="none" xmlns="http://www.w3.org/2000/svg">
  <rect width="120" height="100" rx="4" fill="#E4E4E7"/>
  <mask id="a" fill="#fff">
    <path d="M0 4a4 4 0 0 1 4-4h112a4 4 0 0 1 4 4v20a4 4 0 0 1-4 4H4a4 4 0 0 1-4-4V4Z"/>
  </mask>
  <path d="M0 4a4 4 0 0 1 4-4h112a4 4 0 0 1 4 4v20a4 4 0 0 1-4 4H4a4 4 0 0 1-4-4V4Z" fill="#FAFAFA"/>
  <rect x="51" y="4" width="18" height="4" rx="1" fill="#71717A"/>
  <rect x="30" y="12" width="60" height="12" rx="4" fill="#71717A"/>
  <path d="M-1 4a5 5 0 0 1 5-5h112a5 5 0 0 1 5 5h-2a3 3 0 0 0-3-3H4a3 3 0 0 0-3 3h-2Zm122 20a5 5 0 0 1-5 5H4a5 5 0 0 1-5-5h2a3 3 0 0 0 3 3h112a3 3 0 0 0 3-3h2ZM4 29a5 5 0 0 1-5-5V4a5 5 0 0 1 5-5v2a3 3 0 0 0-3 3v20a3 3 0 0 0 3 3v2ZM116-1a5 5 0 0 1 5 5v20a5 5 0 0 1-5 5v-2a3 3 0 0 0 3-3V4a3 3 0 0 0-3-3v-2Z" fill="#71717A" mask="url(#a)"/>
</svg>
