<svg width="114" height="102" viewBox="0 0 114 102" fill="none" xmlns="http://www.w3.org/2000/svg">
<rect x="1" y="1" width="112" height="100" rx="4" fill="#F9FAFB"/>
<rect x="0.5" y="0.5" width="113" height="101" rx="4.5" fill="#F9FAFB" stroke="#E4E4E7"/>
<rect x="15" y="8" width="38" height="20" rx="2" fill="#71717A"/>
<rect x="15" y="32" width="12" height="2" rx="1" fill="#71717A"/>
<rect x="15" y="38" width="38" height="2" rx="1" fill="#E4E4E7"/>
<rect x="15" y="42" width="7.49121" height="2" rx="1" fill="#E4E4E7"/>
<rect x="23.4912" y="42" width="29.5088" height="2" rx="1" fill="#E4E4E7"/>
<rect x="15" y="46" width="18.5" height="2" rx="1" fill="#E4E4E7"/>
<rect x="34.5" y="46" width="18.5" height="2" rx="1" fill="#E4E4E7"/>
<rect x="62" y="8" width="38" height="20" rx="2" fill="#71717A"/>
<rect x="62" y="32" width="12" height="2" rx="1" fill="#71717A"/>
<rect x="62" y="38" width="38" height="2" rx="1" fill="#E4E4E7"/>
<rect x="62" y="42" width="7.49121" height="2" rx="1" fill="#E4E4E7"/>
<rect x="70.4912" y="42" width="29.5088" height="2" rx="1" fill="#E4E4E7"/>
<rect x="62" y="46" width="18.5" height="2" rx="1" fill="#E4E4E7"/>
<rect x="81.5" y="46" width="18.5" height="2" rx="1" fill="#E4E4E7"/>
<rect x="15" y="56" width="38" height="20" rx="2" fill="#71717A"/>
<rect x="15" y="80" width="12" height="2" rx="1" fill="#71717A"/>
<rect x="15" y="86" width="38" height="2" rx="1" fill="#E4E4E7"/>
<rect x="15" y="90" width="7.49121" height="2" rx="1" fill="#E4E4E7"/>
<rect x="23.4912" y="90" width="29.5088" height="2" rx="1" fill="#E4E4E7"/>
<rect x="15" y="94" width="18.5" height="2" rx="1" fill="#E4E4E7"/>
<rect x="34.5" y="94" width="18.5" height="2" rx="1" fill="#E4E4E7"/>
<rect x="62" y="56" width="38" height="20" rx="2" fill="#71717A"/>
<rect x="62" y="80" width="12" height="2" rx="1" fill="#71717A"/>
<rect x="62" y="86" width="38" height="2" rx="1" fill="#E4E4E7"/>
<rect x="62" y="90" width="7.49121" height="2" rx="1" fill="#E4E4E7"/>
<rect x="70.4912" y="90" width="29.5088" height="2" rx="1" fill="#E4E4E7"/>
<rect x="62" y="94" width="18.5" height="2" rx="1" fill="#E4E4E7"/>
<rect x="81.5" y="94" width="18.5" height="2" rx="1" fill="#E4E4E7"/>
</svg>
