<svg width="120" height="100" fill="none" xmlns="http://www.w3.org/2000/svg">
  <rect width="120" height="100" rx="4" fill="#E4E4E7"/>
  <rect x=".5" y="7.5" width="119" height="85" rx="6.5" fill="#FAFAFA"/>
  <rect x="12" y="15" width="45" height="18" rx="2" fill="#71717A"/>
  <rect x="12" y="37" width="45" height="3" rx="1.5" fill="#D4D4D8"/>
  <rect x="12" y="44" width="13" height="3" rx="1.5" fill="#D4D4D8"/>
  <rect x="63" y="15" width="45" height="18" rx="2" fill="#71717A"/>
  <rect x="63" y="37" width="45" height="3" rx="1.5" fill="#D4D4D8"/>
  <rect x="63" y="44" width="13" height="3" rx="1.5" fill="#D4D4D8"/>
  <rect x="12" y="53" width="45" height="18" rx="2" fill="#71717A"/>
  <rect x="12" y="75" width="45" height="3" rx="1.5" fill="#D4D4D8"/>
  <rect x="12" y="82" width="13" height="3" rx="1.5" fill="#D4D4D8"/>
  <rect x="63" y="53" width="45" height="18" rx="2" fill="#71717A"/>
  <rect x="63" y="75" width="45" height="3" rx="1.5" fill="#D4D4D8"/>
  <rect x="63" y="82" width="13" height="3" rx="1.5" fill="#D4D4D8"/>
  <rect x=".5" y="7.5" width="119" height="85" rx="6.5" stroke="#71717A"/>
</svg>
