<svg xmlns="http://www.w3.org/2000/svg" fill="none" viewBox="0 0 122 82"><rect width="120.5" height="81" x=".5" y=".5" fill="#F9FAFB" rx="4.5"/><rect width="120.5" height="81" x=".5" y=".5" stroke="#E2E8F0" rx="4.5"/><rect width="80" height="22" x="20.75" y="9.5" fill="#C5D0DD" rx="2"/><rect width="80" height="2" x="20.75" y="35.5" fill="#CED8E3" rx="1"/><rect width="49.449" height="2" x="20.75" y="40.5" fill="#CED8E3" rx="1"/><rect width="26.551" height="2" x="74.199" y="40.5" fill="#CED8E3" rx="1"/><g clip-path="url(#a)"><rect width="37.5" height="15" x="20.75" y="47.5" fill="#C5D0DD" rx="1"/><rect width="37.5" height="2" x="20.75" y="65.5" fill="#CED8E3" rx="1"/><rect width="21" height="2" x="20.75" y="70.5" fill="#CED8E3" rx="1"/><rect width="37.5" height="15" x="63.25" y="47.5" fill="#C5D0DD" rx="1"/><rect width="37.5" height="2" x="63.25" y="65.5" fill="#CED8E3" rx="1"/><rect width="21" height="2" x="63.25" y="70.5" fill="#CED8E3" rx="1"/></g><defs><clipPath id="a"><path fill="#fff" d="M20.75 47.5h80v25h-80z"/></clipPath></defs></svg>