<svg id="Layer_1" data-name="Layer 1" xmlns="http://www.w3.org/2000/svg" viewBox="0 0 244 98.96"><defs><style>.cls-1{isolation:isolate;font-size:49.48px;font-family:Nunito-Bold, Nunito;font-weight:700;}.cls-1,.cls-5{fill:#23ab70;}.cls-2{letter-spacing:-0.01em;}.cls-3{letter-spacing:0em;}.cls-4{letter-spacing:0em;}.cls-6{fill:#fff;}</style></defs><title>zakra-logo</title><g id="Zakra"><text class="cls-1" transform="translate(115.89 63.77)"><tspan class="cls-2">Z</tspan><tspan class="cls-3" x="29.29" y="0">ak</tspan><tspan class="cls-4" x="82.54" y="0">r</tspan><tspan x="101.39" y="0">a</tspan></text></g><path id="Rectangle_70" data-name="Rectangle 70" class="cls-5" d="M49.48,0h0A49.48,49.48,0,0,1,99,49.48h0A49.48,49.48,0,0,1,49.48,99h0A49.48,49.48,0,0,1,0,49.48H0A49.48,49.48,0,0,1,49.48,0Z"/><g id="Z"><path id="Path_13" data-name="Path 13" class="cls-6" d="M64.21,28.86A5.9,5.9,0,0,0,60,30.59L30.59,60a5.89,5.89,0,0,0,8.33,8.33h0L68.37,38.92a5.9,5.9,0,0,0-4.16-10.06Z"/><path id="Path_14" data-name="Path 14" class="cls-6" d="M31,39.25A3,3,0,0,0,35,39l10.1-10.1v0H35a6.06,6.06,0,0,0-6.14,5.78A5.89,5.89,0,0,0,31,39.25Z"/><path id="Path_15" data-name="Path 15" class="cls-6" d="M64.18,59.77,53.86,70.1H64a6,6,0,0,0,6.12-5.75,5.87,5.87,0,0,0-2.47-4.93A2.7,2.7,0,0,0,64.18,59.77Z"/></g></svg>