<svg xmlns="http://www.w3.org/2000/svg" fill="none" viewBox="0 0 122 82"><rect width="120.5" height="81" x=".5" y=".5" fill="#F9FAFB" rx="4.5"/><rect width="120.5" height="81" x=".5" y=".5" stroke="#E2E8F0" rx="4.5"/><g clip-path="url(#a)"><rect width="33.5" height="18" x="20.75" y="9" fill="#C5D0DD" rx="1"/><rect width="42.5" height="2" x="58.25" y="14" fill="#CED8E3" rx="1"/><rect width="26.551" height="2" x="58.25" y="20" fill="#CED8E3" rx="1"/><rect width="33.5" height="18" x="20.75" y="32" fill="#C5D0DD" rx="1"/><rect width="42.5" height="2" x="58.25" y="37" fill="#CED8E3" rx="1"/><rect width="26.551" height="2" x="58.25" y="43" fill="#CED8E3" rx="1"/><rect width="33.5" height="18" x="20.75" y="55" fill="#C5D0DD" rx="1"/><rect width="42.5" height="2" x="58.25" y="60" fill="#CED8E3" rx="1"/><rect width="26.551" height="2" x="58.25" y="66" fill="#CED8E3" rx="1"/></g><defs><clipPath id="a"><path fill="#fff" d="M20.75 9h80v64h-80z"/></clipPath></defs></svg>