<svg width="112" height="100" viewBox="0 0 112 100" fill="none" xmlns="http://www.w3.org/2000/svg">
<rect width="112" height="100" rx="4" fill="#F9FAFB"/>
<rect x="0.5" y="0.5" width="111" height="99" rx="3.5" fill="#F9FAFB" stroke="#D1D5DB"/>
<rect x="13.5" y="8" width="30" height="25" rx="2" fill="#71717A"/>
<rect x="47.5" y="10.5" width="33.5469" height="2" rx="1" fill="#A1A1AA"/>
<rect x="47.5" y="16.5" width="51" height="2" rx="1" fill="#D1D5DB"/>
<rect x="47.5" y="20.5" width="22.79" height="2" rx="1" fill="#D1D5DB"/>
<rect x="74.29" y="20.5" width="24.21" height="2" rx="1" fill="#D1D5DB"/>
<rect x="47.5" y="24.5" width="34.584" height="2" rx="1" fill="#D1D5DB"/>
<rect x="86.084" y="24.5" width="12.416" height="2" rx="1" fill="#D1D5DB"/>
<rect x="47.5" y="28.5" width="51" height="2" rx="1" fill="#D1D5DB"/>
<rect x="13.5" y="41" width="30" height="25" rx="2" fill="#71717A"/>
<rect x="47.5" y="43.5" width="33.5469" height="2" rx="1" fill="#A1A1AA"/>
<rect x="47.5" y="49.5" width="51" height="2" rx="1" fill="#D1D5DB"/>
<rect x="47.5" y="53.5" width="22.79" height="2" rx="1" fill="#D1D5DB"/>
<rect x="74.29" y="53.5" width="24.21" height="2" rx="1" fill="#D1D5DB"/>
<rect x="47.5" y="57.5" width="34.584" height="2" rx="1" fill="#D1D5DB"/>
<rect x="86.084" y="57.5" width="12.416" height="2" rx="1" fill="#D1D5DB"/>
<rect x="47.5" y="61.5" width="51" height="2" rx="1" fill="#D1D5DB"/>
<rect x="13.5" y="74" width="30" height="25" rx="2" fill="#71717A"/>
<rect x="47.5" y="76.5" width="33.5469" height="2" rx="1" fill="#A1A1AA"/>
<rect x="47.5" y="82.5" width="51" height="2" rx="1" fill="#D1D5DB"/>
<rect x="47.5" y="86.5" width="22.79" height="2" rx="1" fill="#D1D5DB"/>
<rect x="74.29" y="86.5" width="24.21" height="2" rx="1" fill="#D1D5DB"/>
<rect x="47.5" y="90.5" width="34.584" height="2" rx="1" fill="#D1D5DB"/>
<rect x="86.084" y="90.5" width="12.416" height="2" rx="1" fill="#D1D5DB"/>
<rect x="47.5" y="94.5" width="51" height="2" rx="1" fill="#D1D5DB"/>
</svg>
