<svg width="120" height="100" fill="none" xmlns="http://www.w3.org/2000/svg">
  <rect width="120" height="100" rx="4" fill="#E4E4E7"/>
  <mask id="a" fill="#fff">
    <path d="M0 4a4 4 0 0 1 4-4h112a4 4 0 0 1 4 4v16H0V4Z"/>
  </mask>
  <path d="M0 4a4 4 0 0 1 4-4h112a4 4 0 0 1 4 4v16H0V4Z" fill="#FAFAFA"/>
  <rect x="8" y="8" width="18" height="4" rx="1" fill="#71717A"/>
  <rect x="52" y="4" width="60" height="12" rx="4" fill="#71717A"/>
  <path d="M-1 4a5 5 0 0 1 5-5h112a5 5 0 0 1 5 5h-2a3 3 0 0 0-3-3H4a3 3 0 0 0-3 3h-2Zm121 16H0h120ZM-1 20V4a5 5 0 0 1 5-5v2a3 3 0 0 0-3 3v16h-2ZM116-1a5 5 0 0 1 5 5v16h-2V4a3 3 0 0 0-3-3v-2Z" fill="#71717A" mask="url(#a)"/>
  <mask id="b" fill="#fff">
    <path d="M0 20h120v8H0v-8Z"/>
  </mask>
  <path d="M0 20h120v8H0v-8Z" fill="#84848E"/>
  <path d="M119 20v8h2v-8h-2ZM1 28v-8h-2v8h2Z" fill="#71717A" mask="url(#b)"/>
  <rect x="8" y="22.5" width="8" height="3" rx="1.5" fill="#fff"/>
  <rect x="19" y="22.5" width="16" height="3" rx="1.5" fill="#fff"/>
  <rect x="108" y="22" width="4" height="4" rx="2" fill="#fff"/>
  <rect x="100" y="22" width="4" height="4" rx="2" fill="#fff"/>
  <rect x="92" y="22" width="4" height="4" rx="2" fill="#fff"/>
  <rect x="84" y="22" width="4" height="4" rx="2" fill="#fff"/>
  <path d="M0 28h120v8a4 4 0 0 1-4 4H4a4 4 0 0 1-4-4v-8Z" fill="#71717A"/>
  <path d="m12.89 32.441-2.668 2.197v2.37a.232.232 0 0 0 .232.232l1.62-.004a.232.232 0 0 0 .231-.231V35.62a.232.232 0 0 1 .232-.232h.925a.232.232 0 0 1 .232.232v1.384a.232.232 0 0 0 .231.232l1.621.004a.231.231 0 0 0 .232-.231v-2.373l-2.667-2.195a.177.177 0 0 0-.222 0Zm4.213 1.493-1.21-.997v-2.003a.174.174 0 0 0-.173-.174h-.81a.174.174 0 0 0-.174.173v1.05l-1.295-1.065a.694.694 0 0 0-.883 0l-3.662 3.016a.174.174 0 0 0-.023.245l.37.448a.173.173 0 0 0 .244.024l3.402-2.803a.176.176 0 0 1 .222 0l3.403 2.803a.173.173 0 0 0 .244-.024l.37-.448a.173.173 0 0 0 .031-.06c.007-.022.01-.045.007-.068a.174.174 0 0 0-.063-.117Z" fill="#fff"/>
  <rect x="26" y="33" width="12" height="3" rx="1.5" fill="#fff"/>
  <rect x="42" y="33" width="12" height="3" rx="1.5" fill="#fff"/>
  <rect x="58" y="33" width="12" height="3" rx="1.5" fill="#fff"/>
  <rect x="74" y="33" width="12" height="3" rx="1.5" fill="#fff"/>
</svg>
