<svg width="235" height="52" viewBox="0 0 235 52" fill="none" xmlns="http://www.w3.org/2000/svg">
<rect x="0.5" y="0.5" width="234" height="51" rx="2.5" fill="#F9FAFB" stroke="#D1D5DB"/>
<rect x="104.475" y="29" width="117.906" height="18" rx="1" fill="#E5E7EB"/>
<rect x="11" y="31" width="37.1775" height="14" rx="1" fill="#D4D4D8"/>
<path d="M23.5393 39.9453V41H19.9651V39.9453H23.5393ZM20.3704 33.8906V41H19.0276V33.8906H20.3704ZM24.1106 38.4121V38.3096C24.1106 37.9222 24.1659 37.5658 24.2766 37.2402C24.3873 36.9115 24.5484 36.6266 24.76 36.3857C24.9716 36.1449 25.2304 35.9577 25.5364 35.8242C25.8424 35.6875 26.1907 35.6191 26.5813 35.6191C26.9784 35.6191 27.33 35.6875 27.636 35.8242C27.9452 35.9577 28.2056 36.1449 28.4172 36.3857C28.6288 36.6266 28.79 36.9115 28.9006 37.2402C29.0113 37.5658 29.0667 37.9222 29.0667 38.3096V38.4121C29.0667 38.7962 29.0113 39.1527 28.9006 39.4814C28.79 39.807 28.6288 40.0918 28.4172 40.3359C28.2056 40.5768 27.9469 40.764 27.6409 40.8975C27.3349 41.0309 26.9849 41.0977 26.5911 41.0977C26.2004 41.0977 25.8505 41.0309 25.5413 40.8975C25.232 40.764 24.9716 40.5768 24.76 40.3359C24.5484 40.0918 24.3873 39.807 24.2766 39.4814C24.1659 39.1527 24.1106 38.7962 24.1106 38.4121ZM25.3997 38.3096V38.4121C25.3997 38.6432 25.4224 38.8597 25.468 39.0615C25.5136 39.2633 25.5836 39.4408 25.678 39.5938C25.7724 39.7467 25.8944 39.8672 26.0442 39.9551C26.1972 40.0397 26.3795 40.082 26.5911 40.082C26.7994 40.082 26.9784 40.0397 27.1282 39.9551C27.2779 39.8672 27.4 39.7467 27.4944 39.5938C27.592 39.4408 27.6637 39.2633 27.7092 39.0615C27.7548 38.8597 27.7776 38.6432 27.7776 38.4121V38.3096C27.7776 38.0817 27.7548 37.8685 27.7092 37.6699C27.6637 37.4681 27.592 37.2907 27.4944 37.1377C27.4 36.9814 27.2763 36.8594 27.1233 36.7715C26.9736 36.6803 26.7929 36.6348 26.5813 36.6348C26.373 36.6348 26.1939 36.6803 26.0442 36.7715C25.8944 36.8594 25.7724 36.9814 25.678 37.1377C25.5836 37.2907 25.5136 37.4681 25.468 37.6699C25.4224 37.8685 25.3997 38.0817 25.3997 38.3096ZM33.3635 35.7168H34.5354V40.8389C34.5354 41.3174 34.4312 41.7227 34.2229 42.0547C34.0178 42.39 33.7297 42.6439 33.3586 42.8164C32.9875 42.9922 32.5562 43.0801 32.0647 43.0801C31.8531 43.0801 31.6236 43.0508 31.3762 42.9922C31.1321 42.9336 30.8961 42.8408 30.6682 42.7139C30.4436 42.5902 30.2564 42.429 30.1067 42.2305L30.6877 41.4688C30.8635 41.6738 31.0621 41.8285 31.2834 41.9326C31.5048 42.04 31.7441 42.0938 32.0012 42.0938C32.2616 42.0938 32.483 42.0449 32.6653 41.9473C32.8508 41.8529 32.9924 41.7129 33.0901 41.5273C33.191 41.3451 33.2415 41.1204 33.2415 40.8535V36.9229L33.3635 35.7168ZM29.7942 38.4219V38.3193C29.7942 37.9157 29.843 37.5495 29.9407 37.2207C30.0383 36.8887 30.1783 36.6038 30.3606 36.3662C30.5461 36.1286 30.7691 35.9447 31.0295 35.8145C31.2932 35.6842 31.5894 35.6191 31.9182 35.6191C32.2665 35.6191 32.5595 35.6826 32.7971 35.8096C33.038 35.9365 33.2366 36.1172 33.3928 36.3516C33.5523 36.5859 33.676 36.8643 33.7639 37.1865C33.8551 37.5055 33.925 37.8571 33.9739 38.2412V38.5195C33.9283 38.8939 33.8551 39.2373 33.7542 39.5498C33.6565 39.8623 33.5263 40.1357 33.3635 40.3701C33.2008 40.6012 32.9989 40.7803 32.7581 40.9072C32.5172 41.0342 32.234 41.0977 31.9084 41.0977C31.5829 41.0977 31.29 41.0309 31.0295 40.8975C30.7691 40.764 30.5461 40.5768 30.3606 40.3359C30.1783 40.0951 30.0383 39.8118 29.9407 39.4863C29.843 39.1608 29.7942 38.806 29.7942 38.4219ZM31.0833 38.3193V38.4219C31.0833 38.6497 31.106 38.863 31.1516 39.0615C31.1972 39.2601 31.2672 39.4359 31.3616 39.5889C31.456 39.7386 31.5748 39.8558 31.718 39.9404C31.8612 40.0251 32.0321 40.0674 32.2307 40.0674C32.4976 40.0674 32.7157 40.012 32.885 39.9014C33.0575 39.7874 33.1877 39.6328 33.2756 39.4375C33.3668 39.2389 33.4254 39.016 33.4514 38.7686V38.002C33.4351 37.8066 33.3993 37.626 33.344 37.46C33.2919 37.2939 33.2187 37.1507 33.1243 37.0303C33.0299 36.9098 32.9094 36.8154 32.7629 36.7471C32.6165 36.6787 32.4423 36.6445 32.2405 36.6445C32.0452 36.6445 31.8743 36.6885 31.7278 36.7764C31.5813 36.861 31.4609 36.9798 31.3665 37.1328C31.2721 37.2858 31.2004 37.4632 31.1516 37.665C31.106 37.8669 31.0833 38.085 31.0833 38.3193ZM35.468 38.4121V38.3096C35.468 37.9222 35.5234 37.5658 35.634 37.2402C35.7447 36.9115 35.9058 36.6266 36.1174 36.3857C36.329 36.1449 36.5878 35.9577 36.8938 35.8242C37.1998 35.6875 37.5481 35.6191 37.9387 35.6191C38.3359 35.6191 38.6874 35.6875 38.9934 35.8242C39.3027 35.9577 39.5631 36.1449 39.7747 36.3857C39.9862 36.6266 40.1474 36.9115 40.2581 37.2402C40.3687 37.5658 40.4241 37.9222 40.4241 38.3096V38.4121C40.4241 38.7962 40.3687 39.1527 40.2581 39.4814C40.1474 39.807 39.9862 40.0918 39.7747 40.3359C39.5631 40.5768 39.3043 40.764 38.9983 40.8975C38.6923 41.0309 38.3424 41.0977 37.9485 41.0977C37.5579 41.0977 37.2079 41.0309 36.8987 40.8975C36.5894 40.764 36.329 40.5768 36.1174 40.3359C35.9058 40.0918 35.7447 39.807 35.634 39.4814C35.5234 39.1527 35.468 38.7962 35.468 38.4121ZM36.7571 38.3096V38.4121C36.7571 38.6432 36.7799 38.8597 36.8254 39.0615C36.871 39.2633 36.941 39.4408 37.0354 39.5938C37.1298 39.7467 37.2519 39.8672 37.4016 39.9551C37.5546 40.0397 37.7369 40.082 37.9485 40.082C38.1568 40.082 38.3359 40.0397 38.4856 39.9551C38.6353 39.8672 38.7574 39.7467 38.8518 39.5938C38.9495 39.4408 39.0211 39.2633 39.0667 39.0615C39.1122 38.8597 39.135 38.6432 39.135 38.4121V38.3096C39.135 38.0817 39.1122 37.8685 39.0667 37.6699C39.0211 37.4681 38.9495 37.2907 38.8518 37.1377C38.7574 36.9814 38.6337 36.8594 38.4807 36.7715C38.331 36.6803 38.1503 36.6348 37.9387 36.6348C37.7304 36.6348 37.5514 36.6803 37.4016 36.7715C37.2519 36.8594 37.1298 36.9814 37.0354 37.1377C36.941 37.2907 36.871 37.4681 36.8254 37.6699C36.7799 37.8685 36.7571 38.0817 36.7571 38.3096Z" fill="#F9FAFB"/>
<rect x="1" y="17" width="233" height="8" fill="#A1A1AA"/>
<rect x="9" y="20" width="13" height="2" rx="1" fill="white"/>
<rect x="28" y="20" width="31" height="2" rx="1" fill="white"/>
<rect x="222" y="19" width="4" height="4" rx="2" fill="white"/>
<rect x="214" y="19" width="4" height="4" rx="2" fill="white"/>
<rect x="206" y="19" width="4" height="4" rx="2" fill="white"/>
<rect x="198" y="19" width="4" height="4" rx="2" fill="white"/>
<path d="M1 3C1 1.89543 1.89543 1 3 1H232C233.105 1 234 1.89543 234 3V17H1V3Z" fill="#71717A"/>
<rect x="37.4903" y="7" width="16.9954" height="4" rx="1" fill="#F3F4F6"/>
<rect x="62.9834" y="7" width="16.9954" height="4" rx="1" fill="#F3F4F6"/>
<rect x="88.4766" y="7" width="16.9954" height="4" rx="1" fill="#F3F4F6"/>
<rect x="113.97" y="7" width="16.9954" height="4" rx="1" fill="#F3F4F6"/>
<path d="M18.1712 6.50563L13.9105 10.0204V13.8139C13.9105 13.9121 13.9495 14.0063 14.0188 14.0757C14.0882 14.1452 14.1822 14.1842 14.2803 14.1842L16.8699 14.1775C16.9676 14.177 17.0612 14.1378 17.1301 14.0684C17.1991 13.999 17.2378 13.9051 17.2378 13.8072V11.5918C17.2378 11.4936 17.2767 11.3994 17.3461 11.3299C17.4154 11.2605 17.5095 11.2215 17.6075 11.2215H19.0865C19.1846 11.2215 19.2786 11.2605 19.348 11.3299C19.4173 11.3994 19.4563 11.4936 19.4563 11.5918V13.8055C19.4561 13.8543 19.4656 13.9025 19.4841 13.9476C19.5026 13.9927 19.5298 14.0336 19.5641 14.0682C19.5985 14.1027 19.6393 14.13 19.6842 14.1487C19.7292 14.1674 19.7774 14.177 19.826 14.177L22.4147 14.1842C22.5127 14.1842 22.6068 14.1452 22.6761 14.0757C22.7455 14.0063 22.7844 13.9121 22.7844 13.8139V10.0179L18.5247 6.50563C18.4747 6.4652 18.4123 6.44316 18.3479 6.44316C18.2836 6.44316 18.2212 6.4652 18.1712 6.50563V6.50563ZM24.9012 8.89457L22.9693 7.29955V4.09355C22.9693 4.01989 22.9401 3.94924 22.8881 3.89715C22.8361 3.84506 22.7655 3.8158 22.692 3.8158H21.3979C21.3243 3.8158 21.2538 3.84506 21.2018 3.89715C21.1498 3.94924 21.1206 4.01989 21.1206 4.09355V5.77421L19.0516 4.06925C18.8531 3.9056 18.6039 3.81612 18.3468 3.81612C18.0897 3.81612 17.8405 3.9056 17.642 4.06925L11.7924 8.89457C11.7643 8.91782 11.741 8.94638 11.724 8.97862C11.7069 9.01086 11.6964 9.04616 11.6929 9.08248C11.6895 9.11881 11.6933 9.15546 11.704 9.19034C11.7147 9.22521 11.7322 9.25763 11.7554 9.28574L12.3447 10.0033C12.3678 10.0315 12.3963 10.0548 12.4285 10.072C12.4607 10.0892 12.4959 10.0998 12.5322 10.1033C12.5685 10.1068 12.6052 10.1031 12.64 10.0924C12.6749 10.0817 12.7073 10.0643 12.7354 10.041L18.1712 5.55663C18.2212 5.5162 18.2836 5.49416 18.3479 5.49416C18.4123 5.49416 18.4747 5.5162 18.5247 5.55663L23.9607 10.041C23.9888 10.0643 24.0211 10.0818 24.0559 10.0925C24.0908 10.1032 24.1274 10.107 24.1636 10.1035C24.1999 10.1001 24.2351 10.0895 24.2673 10.0725C24.2995 10.0554 24.328 10.0321 24.3512 10.004L24.9405 9.28644C24.9637 9.25816 24.9811 9.22558 24.9917 9.19055C25.0023 9.15552 25.0058 9.11874 25.0022 9.08232C24.9985 9.04591 24.9877 9.01058 24.9704 8.97835C24.9531 8.94613 24.9296 8.91766 24.9012 8.89457V8.89457Z" fill="#F3F4F6"/>
</svg>
