<svg width="120" height="100" fill="none" xmlns="http://www.w3.org/2000/svg">
  <rect width="120" height="100" rx="4" fill="#E4E4E7"/>
  <rect x=".5" y="12.5" width="119" height="75" rx="3.5" fill="#FAFAFA"/>
  <path fill="#71717A" d="M6.5 20h28v60h-28z"/>
  <rect x="40.5" y="20" width="24" height="3" rx="1.5" fill="#A1A1AA"/>
  <rect x="40.5" y="28" width="39" height="3" rx="1.5" fill="#E4E4E7"/>
  <rect x="40.5" y="34" width="39" height="3" rx="1.5" fill="#E4E4E7"/>
  <rect x="40.5" y="40" width="39" height="3" rx="1.5" fill="#E4E4E7"/>
  <rect x="40.5" y="46" width="39" height="3" rx="1.5" fill="#E4E4E7"/>
  <rect x="40.5" y="55" width="39" height="3" rx="1.5" fill="#E4E4E7"/>
  <rect x="40.5" y="61" width="39" height="3" rx="1.5" fill="#E4E4E7"/>
  <rect x="40.5" y="67" width="39" height="3" rx="1.5" fill="#E4E4E7"/>
  <rect x="40.5" y="73" width="39" height="3" rx="1.5" fill="#E4E4E7"/>
  <path fill="#71717A" d="M85.5 20h28v60h-28z"/>
  <rect x=".5" y="12.5" width="119" height="75" rx="3.5" stroke="#71717A"/>
</svg>
