<svg xmlns="http://www.w3.org/2000/svg" fill="none" viewBox="0 0 122 82"><rect width="120.5" height="81" x=".5" y=".5" fill="#F9FAFB" rx="4.5"/><rect width="120.5" height="81" x=".5" y=".5" stroke="#E2E8F0" rx="4.5"/><rect width="26" height="64" x="9" y="9" fill="#C5D0DD" rx="2"/><g fill="#CED8E3" opacity=".7"><rect width="39.5" height="13" x="41" y="10" rx="2"/><rect width="39.5" height="2" x="41" y="28" rx="1"/><rect width="39.5" height="2" x="41" y="35" rx="1"/><rect width="39.5" height="2" x="41" y="42" rx="1"/><rect width="39.5" height="2" x="41" y="49" rx="1"/><rect width="39.5" height="2" x="41" y="56" rx="1"/><rect width="39.5" height="2" x="41" y="63" rx="1"/><rect width="39.5" height="2" x="41" y="70" rx="1"/></g><rect width="26" height="64" x="86.5" y="9" fill="#C5D0DD" rx="2"/></svg>