<svg width="120" height="100" fill="none" xmlns="http://www.w3.org/2000/svg">
  <rect width="120" height="100" rx="4" fill="#E4E4E7"/>
  <rect x=".5" y="14.5" width="119" height="71" rx="3.5" fill="#FAFAFA"/>
  <rect x="11" y="22" width="61" height="3" rx="1.5" fill="#A1A1AA"/>
  <rect x="11" y="30" width="98" height="3" rx="1.5" fill="#D4D4D8"/>
  <rect x="11" y="36" width="98" height="3" rx="1.5" fill="#D4D4D8"/>
  <rect x="11" y="42" width="98" height="3" rx="1.5" fill="#D4D4D8"/>
  <rect x="11" y="48" width="98" height="3" rx="1.5" fill="#D4D4D8"/>
  <rect x="11" y="57" width="98" height="3" rx="1.5" fill="#D4D4D8"/>
  <rect x="11" y="63" width="98" height="3" rx="1.5" fill="#D4D4D8"/>
  <rect x="11" y="69" width="98" height="3" rx="1.5" fill="#D4D4D8"/>
  <rect x="11" y="75" width="98" height="3" rx="1.5" fill="#D4D4D8"/>
  <rect x=".5" y="14.5" width="119" height="71" rx="3.5" stroke="#71717A"/>
</svg>
