<svg width="120" height="84" viewBox="0 0 120 84" fill="none" xmlns="http://www.w3.org/2000/svg">
<rect x="0.5" y="0.5" width="119" height="83" rx="3.5" fill="#F9FAFB"/>
<rect x="11" y="8" width="61" height="3" rx="1.5" fill="#A1A1AA"/>
<rect x="11" y="16" width="98" height="3" rx="1.5" fill="#D1D5DB"/>
<rect x="11" y="22" width="98" height="3" rx="1.5" fill="#D1D5DB"/>
<rect x="11" y="28" width="98" height="3" rx="1.5" fill="#D1D5DB"/>
<rect x="11" y="34" width="98" height="3" rx="1.5" fill="#D1D5DB"/>
<rect x="11" y="43" width="98" height="3" rx="1.5" fill="#D1D5DB"/>
<rect x="11" y="49" width="98" height="3" rx="1.5" fill="#D1D5DB"/>
<rect x="11" y="55" width="98" height="3" rx="1.5" fill="#D1D5DB"/>
<rect x="11" y="61" width="98" height="3" rx="1.5" fill="#D1D5DB"/>
<rect x="11" y="67" width="98" height="3" rx="1.5" fill="#D1D5DB"/>
<rect x="11" y="73" width="98" height="3" rx="1.5" fill="#D1D5DB"/>
<rect x="0.5" y="0.5" width="119" height="83" rx="3.5" stroke="#D1D5DB"/>
</svg>
