<svg width="120" height="100" xmlns="http://www.w3.org/2000/svg" fill="none" viewBox="0 0 120 100">
  <rect width="120" height="100" fill="#E4E4E7" rx="4"/>
  <rect width="119" height="83" x=".5" y="8.5" fill="#71717A" rx="3.5"/>
  <path fill="#FAFAFA" d="M54.892 34.23c-1.216 0-2.108-.892-2.108-2.108 0-.082 0-.244-.243-.325-.082-.08-.244 0-.325.081-.73.811-2.27.811-3 0-.405-.405-.567-.892-.567-1.54 0-.568.243-1.135.567-1.54.081-.082.081-.244.081-.325 0-.081-.162-.162-.243-.162h-.243c-1.217 0-2.108-.892-2.108-2.108 0-1.217.891-2.108 2.108-2.108.08 0 .243 0 .324-.244.081-.243.081-.243 0-.324-.405-.324-.649-.892-.649-1.46-.08-.567.163-1.135.568-1.54.73-.73 2.19-.73 3 0 .162.081.324.162.486.081 0-.081 0-.081.082-.081.08 0 .08-.081.08-.162v-.162c0-1.217.892-2.108 2.109-2.108 1.216 0 2.108.891 2.108 2.108v.08c0 .082.08.163.162.244.081 0 .243 0 .324-.081.73-.73 2.27-.73 3 0 .406.405.568.892.568 1.54 0 .649-.162 1.054-.568 1.46-.08.08-.08.243-.08.324 0 .081 0 .081.08.162.081.081.081.081.163.081 1.297 0 2.189.892 2.189 2.108 0 1.136-.892 2.109-2.027 2.109l-.325.324c0 .081 0 .243.081.324.811.811.811 2.19 0 3-.81.811-2.189.811-3 0-.08-.08-.243-.08-.324-.08-.081 0-.162.161-.162.242 0 1.298-.892 2.19-2.108 2.19Zm-2.433-4.054c.244 0 .487.08.73.162.81.324 1.216.973 1.216 1.702 0 .325.244.568.487.568s.486-.243.486-.486c0-.811.487-1.541 1.135-1.784.73-.325 1.541-.162 2.109.405.162.162.567.162.73 0 .161-.162.161-.567 0-.73-.568-.567-.73-1.378-.406-2.108 0-.08 0-.08.081-.08.243-.406.73-.974 1.378-1.217h.163c.324 0 .567-.243.567-.486 0-.244-.243-.487-.486-.487-.811 0-1.541-.487-1.784-1.135-.081-.081-.081-.162-.081-.243-.243-.649 0-1.46.486-1.946.081-.081.162-.244.162-.325 0-.08-.08-.243-.162-.324-.162-.162-.567-.162-.73 0a1.99 1.99 0 0 1-2.108.324c-.73-.243-1.135-.973-1.135-1.702v-.081c0-.244-.243-.487-.486-.487s-.487.243-.487.487v.162c0 .73-.486 1.46-1.135 1.703-.081.08-.162.08-.243.08-.649.163-1.378.082-1.946-.405 0 0-.081 0-.081-.081-.162-.162-.568-.162-.73 0-.081.081-.081.243-.081.324 0 .081 0 .325.162.487.568.567.73 1.378.324 2.108a1.753 1.753 0 0 1-1.702 1.216c-.325 0-.568.243-.568.487 0 .243.244.486.487.486h.243c.73 0 1.46.487 1.703 1.135.324.73.162 1.54-.406 2.108-.08.081-.162.244-.162.325 0 .162.081.243.162.324.162.162.568.162.73 0 .324-.324.892-.486 1.378-.486Zm2.27-1.136c-1.621 0-2.837-1.216-2.837-2.837 0-1.622 1.216-2.838 2.838-2.838 1.621 0 2.838 1.216 2.838 2.838 0 1.621-1.217 2.837-2.838 2.837Zm0-4.054c-.648 0-1.216.568-1.216 1.217 0 .648.568 1.216 1.217 1.216.648 0 1.216-.568 1.216-1.216 0-.65-.568-1.217-1.216-1.217Zm3.241 14.966a.81.81 0 0 1-.81-1.022l1.102-4.054a.81.81 0 0 1 .203-.357l9.973-9.973a2.976 2.976 0 0 1 4.127 0 2.903 2.903 0 0 1 0 4.095l-9.973 9.973a.811.811 0 0 1-.357.203l-4.054 1.135a.607.607 0 0 1-.21 0Zm1.833-4.435-.673 2.432 2.432-.681 9.819-9.738a1.281 1.281 0 0 0 0-1.8 1.306 1.306 0 0 0-1.8 0l-9.778 9.787ZM46.008 52.42h-3.953v2.75h3.633v2.046h-3.633v4.352H39.53V50.365h6.477v2.054Zm6.828 3.374a2.14 2.14 0 0 0-1.04-.242c-.536 0-.955.198-1.257.594-.302.39-.453.924-.453 1.601v3.82h-2.469v-8h2.469v1.485h.031c.39-1.083 1.094-1.625 2.11-1.625.26 0 .463.031.609.094v2.273Zm4.906 5.969c-1.333 0-2.383-.372-3.148-1.117-.76-.75-1.14-1.766-1.14-3.047 0-1.323.395-2.357 1.187-3.102.791-.75 1.862-1.125 3.21-1.125 1.329 0 2.37.375 3.126 1.125.755.745 1.132 1.732 1.132 2.961 0 1.328-.39 2.378-1.172 3.149-.776.77-1.84 1.156-3.195 1.156Zm.063-6.5c-.584 0-1.037.2-1.36.602-.323.4-.484.968-.484 1.703 0 1.536.62 2.304 1.86 2.304 1.182 0 1.773-.789 1.773-2.367 0-1.495-.597-2.242-1.79-2.242Zm18.61 6.305h-2.462v-4.563c0-1.161-.427-1.742-1.281-1.742-.406 0-.737.174-.992.523-.256.35-.383.784-.383 1.305v4.477h-2.469v-4.61c0-1.13-.42-1.695-1.258-1.695-.422 0-.76.167-1.015.5-.25.333-.375.786-.375 1.36v4.445h-2.47v-8h2.47v1.25h.03a2.93 2.93 0 0 1 1.071-1.04c.464-.27.969-.406 1.516-.406 1.13 0 1.904.498 2.32 1.492.61-.994 1.505-1.492 2.688-1.492 1.74 0 2.61 1.073 2.61 3.22v4.976ZM27.022 80.169c-.817.396-1.885.594-3.203.594-1.718 0-3.07-.505-4.054-1.516-.985-1.01-1.477-2.356-1.477-4.039 0-1.791.552-3.245 1.656-4.36 1.11-1.114 2.547-1.671 4.313-1.671 1.094 0 2.015.138 2.765.414v2.43c-.75-.448-1.604-.672-2.562-.672-1.052 0-1.901.33-2.547.992-.646.662-.969 1.557-.969 2.688 0 1.083.305 1.948.914 2.593.61.64 1.43.961 2.461.961.985 0 1.886-.24 2.703-.718v2.304Zm9.313.399h-2.461v-1.22h-.04c-.608.944-1.424 1.415-2.444 1.415-1.854 0-2.782-1.123-2.782-3.367v-4.828h2.461v4.609c0 1.13.448 1.695 1.344 1.695.443 0 .797-.153 1.063-.46.265-.313.398-.735.398-1.266v-4.578h2.46v8Zm1.562-.211v-2c.407.245.81.427 1.211.547.407.12.79.18 1.149.18.437 0 .781-.06 1.031-.18.255-.12.383-.302.383-.547a.506.506 0 0 0-.172-.39 1.585 1.585 0 0 0-.445-.274 4.785 4.785 0 0 0-.586-.211 7.15 7.15 0 0 1-.617-.211 6.436 6.436 0 0 1-.844-.383 2.602 2.602 0 0 1-.61-.484 1.982 1.982 0 0 1-.375-.633 2.599 2.599 0 0 1-.125-.852c0-.448.097-.833.29-1.156.197-.323.458-.586.78-.79a3.543 3.543 0 0 1 1.118-.452c.422-.1.86-.149 1.312-.149.355 0 .714.029 1.079.086.364.052.724.13 1.078.235v1.906a3.79 3.79 0 0 0-1.008-.406 4.082 4.082 0 0 0-1.047-.141 2.2 2.2 0 0 0-.46.047 1.32 1.32 0 0 0-.376.125.65.65 0 0 0-.258.21.47.47 0 0 0-.093.29c0 .146.046.27.14.375.094.104.216.195.367.273.151.073.318.14.5.203.188.058.373.118.555.18.328.115.625.24.89.375.266.136.493.294.68.477a1.8 1.8 0 0 1 .438.64c.104.245.156.537.156.875 0 .474-.104.88-.312 1.22a2.472 2.472 0 0 1-.82.82c-.34.208-.732.359-1.18.453a6.32 6.32 0 0 1-1.383.148 7.15 7.15 0 0 1-2.446-.406Zm12.407.117c-.365.193-.914.289-1.649.289-1.74 0-2.61-.904-2.61-2.711v-3.664H44.75v-1.82h1.297V70.84l2.46-.703v2.43h1.798v1.82h-1.797v3.234c0 .834.33 1.25.992 1.25.26 0 .529-.075.805-.226v1.828Zm5.148.289c-1.333 0-2.383-.373-3.148-1.117-.76-.75-1.14-1.766-1.14-3.047 0-1.323.395-2.357 1.187-3.102.791-.75 1.862-1.125 3.21-1.125 1.329 0 2.37.375 3.126 1.125.755.745 1.132 1.732 1.132 2.961 0 1.328-.39 2.378-1.172 3.149-.776.77-1.84 1.156-3.195 1.156Zm.063-6.5c-.584 0-1.037.2-1.36.602-.323.4-.484.968-.484 1.703 0 1.536.62 2.304 1.86 2.304 1.182 0 1.773-.789 1.773-2.367 0-1.495-.597-2.242-1.79-2.242Zm18.609 6.305h-2.46v-4.563c0-1.161-.428-1.742-1.282-1.742-.406 0-.737.174-.992.523-.256.35-.383.784-.383 1.305v4.477h-2.469v-4.61c0-1.13-.42-1.695-1.258-1.695-.422 0-.76.167-1.015.5-.25.333-.375.786-.375 1.36v4.445h-2.47v-8h2.47v1.25h.03a2.93 2.93 0 0 1 1.071-1.04 2.95 2.95 0 0 1 1.516-.406c1.13 0 1.904.498 2.32 1.493.61-.995 1.505-1.493 2.688-1.493 1.74 0 2.609 1.073 2.609 3.22v4.976Zm3.203-9.266c-.416 0-.758-.122-1.023-.367a1.208 1.208 0 0 1-.399-.914c0-.37.133-.672.399-.906.265-.235.606-.352 1.023-.352.422 0 .763.117 1.024.352.265.234.398.536.398.906 0 .375-.133.682-.398.922-.26.24-.602.359-1.024.359Zm1.219 9.266h-2.469v-8h2.469v8Zm8.414 0h-7.18v-1.024l4.016-5.156H80.18v-1.82h6.75v1.218l-3.805 4.961h3.836v1.82Zm8.523-3.297h-5.218c.083 1.161.815 1.742 2.195 1.742.88 0 1.654-.208 2.32-.625v1.781c-.74.396-1.7.594-2.883.594-1.291 0-2.294-.357-3.007-1.07-.714-.72-1.07-1.72-1.07-3 0-1.328.385-2.38 1.156-3.157.77-.776 1.718-1.164 2.843-1.164 1.167 0 2.068.347 2.703 1.04.641.692.961 1.632.961 2.82v1.039Zm-2.289-1.516c0-1.146-.463-1.719-1.39-1.719-.396 0-.74.164-1.032.493-.286.328-.46.737-.523 1.226h2.945Zm8.977-.96a2.14 2.14 0 0 0-1.039-.243c-.537 0-.956.198-1.258.594-.302.39-.453.924-.453 1.601v3.82h-2.469v-8h2.469v1.485h.031c.39-1.083 1.094-1.625 2.109-1.625.261 0 .464.031.61.094v2.273Z"/>
  <rect width="119" height="83" x=".5" y="8.5" stroke="#71717A" rx="3.5"/>
</svg>
