<svg width="120" height="84" viewBox="0 0 120 84" fill="none" xmlns="http://www.w3.org/2000/svg">
<rect x="0.5" y="0.5" width="119" height="83" rx="3.5" fill="#F9FAFB"/>
<path d="M73.5667 47.5C73.3227 48.053 73.2499 48.6664 73.3577 49.2611C73.4655 49.8558 73.7491 50.4046 74.1717 50.8367L74.2817 50.9467C74.6226 51.2872 74.8931 51.6916 75.0776 52.1367C75.2621 52.5819 75.3571 53.059 75.3571 53.5408C75.3571 54.0227 75.2621 54.4998 75.0776 54.945C74.8931 55.3901 74.6226 55.7945 74.2817 56.135C73.9412 56.4759 73.5368 56.7464 73.0917 56.9309C72.6465 57.1154 72.1694 57.2104 71.6875 57.2104C71.2057 57.2104 70.7286 57.1154 70.2834 56.9309C69.8383 56.7464 69.4339 56.4759 69.0934 56.135L68.9834 56.025C68.5513 55.6024 68.0025 55.3188 67.4078 55.211C66.8131 55.1032 66.1997 55.176 65.6467 55.42C65.1045 55.6524 64.642 56.0383 64.3163 56.5302C63.9905 57.022 63.8157 57.5984 63.8134 58.1883V58.5C63.8134 59.4725 63.4271 60.4051 62.7394 61.0927C62.0518 61.7804 61.1192 62.1667 60.1467 62.1667C59.1742 62.1667 58.2416 61.7804 57.554 61.0927C56.8664 60.4051 56.48 59.4725 56.48 58.5V58.335C56.4658 57.7282 56.2694 57.1397 55.9163 56.646C55.5632 56.1523 55.0697 55.7762 54.5 55.5667C53.9471 55.3226 53.3337 55.2498 52.739 55.3577C52.1442 55.4655 51.5955 55.749 51.1634 56.1717L51.0534 56.2817C50.7128 56.6226 50.3084 56.893 49.8633 57.0776C49.4182 57.2621 48.9411 57.3571 48.4592 57.3571C47.9774 57.3571 47.5002 57.2621 47.0551 57.0776C46.61 56.893 46.2056 56.6226 45.865 56.2817C45.5241 55.9411 45.2537 55.5368 45.0692 55.0916C44.8846 54.6465 44.7897 54.1694 44.7897 53.6875C44.7897 53.2057 44.8846 52.7285 45.0692 52.2834C45.2537 51.8383 45.5241 51.4339 45.865 51.0933L45.975 50.9833C46.3977 50.5513 46.6812 50.0025 46.789 49.4078C46.8969 48.813 46.8241 48.1996 46.58 47.6467C46.3476 47.1044 45.9618 46.642 45.4699 46.3162C44.978 45.9905 44.4016 45.8157 43.8117 45.8133H43.5C42.5276 45.8133 41.5949 45.427 40.9073 44.7394C40.2197 44.0518 39.8334 43.1191 39.8334 42.1467C39.8334 41.1742 40.2197 40.2416 40.9073 39.554C41.5949 38.8663 42.5276 38.48 43.5 38.48H43.665C44.2719 38.4658 44.8604 38.2694 45.3541 37.9163C45.8478 37.5632 46.2239 37.0697 46.4334 36.5C46.6774 35.947 46.7502 35.3337 46.6424 34.7389C46.5345 34.1442 46.251 33.5954 45.8284 33.1633L45.7184 33.0533C45.3775 32.7128 45.107 32.3084 44.9225 31.8633C44.738 31.4182 44.643 30.941 44.643 30.4592C44.643 29.9773 44.738 29.5002 44.9225 29.0551C45.107 28.6099 45.3775 28.2055 45.7184 27.865C46.0589 27.5241 46.4633 27.2536 46.9084 27.0691C47.3536 26.8846 47.8307 26.7896 48.3125 26.7896C48.7944 26.7896 49.2715 26.8846 49.7167 27.0691C50.1618 27.2536 50.5662 27.5241 50.9067 27.865L51.0167 27.975C51.4488 28.3977 51.9976 28.6812 52.5923 28.789C53.187 28.8969 53.8004 28.8241 54.3534 28.58H54.5C55.0423 28.3476 55.5047 27.9617 55.8305 27.4699C56.1562 26.978 56.331 26.4016 56.3334 25.8117V25.5C56.3334 24.5275 56.7197 23.5949 57.4073 22.9073C58.095 22.2197 59.0276 21.8333 60 21.8333C60.9725 21.8333 61.9051 22.2197 62.5928 22.9073C63.2804 23.5949 63.6667 24.5275 63.6667 25.5V25.665C63.6691 26.255 63.8439 26.8313 64.1696 27.3232C64.4953 27.8151 64.9578 28.2009 65.5 28.4333C66.053 28.6774 66.6664 28.7502 67.2611 28.6424C67.8558 28.5345 68.4046 28.251 68.8367 27.8283L68.9467 27.7183C69.2872 27.3774 69.6916 27.107 70.1368 26.9225C70.5819 26.7379 71.059 26.643 71.5409 26.643C72.0227 26.643 72.4999 26.7379 72.945 26.9225C73.3901 27.107 73.7945 27.3774 74.135 27.7183C74.476 28.0589 74.7464 28.4633 74.9309 28.9084C75.1155 29.3535 75.2104 29.8307 75.2104 30.3125C75.2104 30.7944 75.1155 31.2715 74.9309 31.7166C74.7464 32.1618 74.476 32.5661 74.135 32.9067L74.025 33.0167C73.6024 33.4488 73.3189 33.9975 73.211 34.5923C73.1032 35.187 73.176 35.8004 73.42 36.3533V36.5C73.6524 37.0423 74.0383 37.5047 74.5302 37.8304C75.0221 38.1562 75.5984 38.331 76.1884 38.3333H76.5C77.4725 38.3333 78.4051 38.7197 79.0928 39.4073C79.7804 40.0949 80.1667 41.0276 80.1667 42C80.1667 42.9725 79.7804 43.9051 79.0928 44.5927C78.4051 45.2804 77.4725 45.6667 76.5 45.6667H76.335C75.7451 45.669 75.1687 45.8438 74.6769 46.1696C74.185 46.4953 73.7991 46.9578 73.5667 47.5V47.5Z" stroke="#71717A" stroke-width="1.5" stroke-linecap="round" stroke-linejoin="round"/>
<path d="M60 52.4211C65.7554 52.4211 70.4211 47.7554 70.4211 42C70.4211 36.2446 65.7554 31.5789 60 31.5789C54.2446 31.5789 49.579 36.2446 49.579 42C49.579 47.7554 54.2446 52.4211 60 52.4211Z" stroke="#71717A" stroke-width="1.5" stroke-linecap="round" stroke-linejoin="round"/>
<path d="M49.579 42H70.4211" stroke="#71717A" stroke-width="1.5" stroke-linecap="round" stroke-linejoin="round"/>
<path d="M60.0001 31.5789C62.6067 34.4326 64.088 38.1359 64.1685 42C64.088 45.8641 62.6067 49.5674 60.0001 52.4211C57.3935 49.5674 55.9122 45.8641 55.8317 42C55.9122 38.1359 57.3935 34.4326 60.0001 31.5789V31.5789Z" stroke="#71717A" stroke-width="1.5" stroke-linecap="round" stroke-linejoin="round"/>
<rect x="0.5" y="0.5" width="119" height="83" rx="3.5" stroke="#D1D5DB"/>
</svg>
