<svg xmlns="http://www.w3.org/2000/svg" fill="none" viewBox="0 0 123 82"><rect width="120.5" height="81" x="1.25" y=".5" fill="#F9FAFB" rx="4.5"/><rect width="120.5" height="81" x="1.25" y=".5" stroke="#E2E8F0" rx="4.5"/><path stroke="#849CB8" stroke-linecap="round" stroke-linejoin="round" stroke-width=".955" d="M70.133 44.5a1.925 1.925 0 0 0 .385 2.124l.07.07a2.332 2.332 0 0 1 0 3.301 2.332 2.332 0 0 1-3.301 0l-.07-.07a1.925 1.925 0 0 0-2.124-.385 1.926 1.926 0 0 0-1.166 1.762v.198a2.333 2.333 0 1 1-4.667 0v-.105A1.925 1.925 0 0 0 58 49.634a1.924 1.924 0 0 0-2.123.385l-.07.07a2.333 2.333 0 0 1-3.986-1.651 2.334 2.334 0 0 1 .684-1.651l.07-.07a1.925 1.925 0 0 0 .385-2.123 1.925 1.925 0 0 0-1.762-1.167H51a2.333 2.333 0 1 1 0-4.667h.105a1.925 1.925 0 0 0 1.762-1.26 1.925 1.925 0 0 0-.385-2.123l-.07-.07a2.334 2.334 0 1 1 3.301-3.302l.07.07a1.925 1.925 0 0 0 2.124.385H58a1.925 1.925 0 0 0 1.167-1.761V30.5a2.333 2.333 0 0 1 4.666 0v.105A1.926 1.926 0 0 0 65 32.367a1.925 1.925 0 0 0 2.123-.385l.07-.07a2.333 2.333 0 0 1 3.809.757 2.334 2.334 0 0 1-.507 2.545l-.07.07a1.924 1.924 0 0 0-.385 2.123v.093a1.925 1.925 0 0 0 1.762 1.167H72a2.333 2.333 0 1 1 0 4.667h-.105a1.925 1.925 0 0 0-1.762 1.166v0Z"/><path stroke="#849CB8" stroke-linecap="round" stroke-linejoin="round" stroke-width=".955" d="M61.5 47.632a6.632 6.632 0 1 0 0-13.263 6.632 6.632 0 0 0 0 13.263ZM54.868 41h13.264"/><path stroke="#849CB8" stroke-linecap="round" stroke-linejoin="round" stroke-width=".955" d="M61.5 34.37A10.147 10.147 0 0 1 64.152 41a10.146 10.146 0 0 1-2.652 6.632 10.146 10.146 0 0 1-2.653-6.631 10.147 10.147 0 0 1 2.653-6.632v0Z"/></svg>