<svg width="120" height="100" fill="none" xmlns="http://www.w3.org/2000/svg">
  <rect width="120" height="100" rx="4" fill="#E4E4E7"/>
  <rect x=".5" y="12.5" width="119" height="75" rx="3.5" fill="#FAFAFA"/>
  <rect x="8" y="22" width="42" height="3" rx="1.5" fill="#A1A1AA"/>
  <rect x="8" y="30" width="68" height="3" rx="1.5" fill="#E4E4E7"/>
  <rect x="8" y="36" width="68" height="3" rx="1.5" fill="#E4E4E7"/>
  <rect x="8" y="42" width="68" height="3" rx="1.5" fill="#E4E4E7"/>
  <rect x="8" y="48" width="68" height="3" rx="1.5" fill="#E4E4E7"/>
  <rect x="8" y="57" width="68" height="3" rx="1.5" fill="#E4E4E7"/>
  <rect x="8" y="63" width="68" height="3" rx="1.5" fill="#E4E4E7"/>
  <rect x="8" y="69" width="68" height="3" rx="1.5" fill="#E4E4E7"/>
  <rect x="8" y="75" width="68" height="3" rx="1.5" fill="#E4E4E7"/>
  <path fill="#71717A" d="M82 20h30v60H82z"/>
  <rect x=".5" y="12.5" width="119" height="75" rx="3.5" stroke="#71717A"/>
</svg>
